<svg version="1.1" viewBox="0.0 0.0 775.7821522309712 446.1968503937008" fill="none" stroke="none" stroke-linecap="square" stroke-miterlimit="10" xmlns:xlink="http://www.w3.org/1999/xlink" xmlns="http://www.w3.org/2000/svg"><clipPath id="p.0"><path d="m0 0l775.78217 0l0 446.19684l-775.78217 0l0 -446.19684z" clip-rule="nonzero"/></clipPath><g clip-path="url(#p.0)"><path fill="#000000" fill-opacity="0.0" d="m0 0l775.78217 0l0 446.19684l-775.78217 0z" fill-rule="evenodd"/><path fill="#3b5998" d="m13.2374935 223.11043l0 0c0 -29.513275 23.925234 -53.438507 53.4385 -53.438507l134.05843 0l0 0c14.172775 0 27.76506 5.6301117 37.786728 15.651779c10.0216675 10.021652 15.651779 23.613953 15.651779 37.786728l0 0l0 0c0 29.51326 -23.925232 53.43849 -53.438507 53.43849l-134.05843 0c-29.513268 0 -53.4385 -23.925232 -53.4385 -53.43849z" fill-rule="evenodd"/><path fill="#ffffff" d="m29.440369 223.11043l0 0c0 -21.457565 17.394794 -38.85237 38.852364 -38.85237l130.80804 0l0 0c10.3042755 0 20.186523 4.0933685 27.472763 11.379593c7.2862244 7.2862396 11.379593 17.168488 11.379593 27.472778l0 0l0 0c0 21.457565 -17.39479 38.85237 -38.852356 38.85237l-130.80804 0c-21.45757 0 -38.852364 -17.394806 -38.852364 -38.85237z" fill-rule="evenodd"/><path fill="#ff0000" d="m267.42337 223.11043l0 0c0 -29.513275 23.925232 -53.438507 53.438507 -53.438507l134.05841 0l0 0c14.17276 0 27.765076 5.6301117 37.786743 15.651779c10.021637 10.021652 15.651764 23.613953 15.651764 37.786728l0 0l0 0c0 29.51326 -23.925232 53.43849 -53.438507 53.43849l-134.05841 0c-29.513275 0 -53.438507 -23.925232 -53.438507 -53.43849z" fill-rule="evenodd"/><path fill="#ffffff" d="m283.62622 223.11043l0 0c0 -21.457565 17.394806 -38.85237 38.852386 -38.85237l130.80801 0l0 0c10.304291 0 20.186554 4.0933685 27.472778 11.379593c7.2862244 7.2862396 11.379578 17.168488 11.379578 27.472778l0 0l0 0c0 21.457565 -17.394775 38.85237 -38.852356 38.85237l-130.80801 0c-21.45758 0 -38.852386 -17.394806 -38.852386 -38.85237z" fill-rule="evenodd"/><path fill="#a5d7d2" d="m521.60925 223.11043l0 0c0 -29.513275 23.925232 -53.438507 53.438477 -53.438507l134.05841 0l0 0c14.172791 0 27.765076 5.6301117 37.786743 15.651779c10.0216675 10.021652 15.651794 23.613953 15.651794 37.786728l0 0l0 0c0 29.51326 -23.925232 53.43849 -53.438538 53.43849l-134.05841 0c-29.513245 0 -53.438477 -23.925232 -53.438477 -53.43849z" fill-rule="evenodd"/><path fill="#ffffff" d="m537.8121 223.11043l0 0c0 -21.457565 17.394836 -38.85237 38.852417 -38.85237l130.80798 0l0 0c10.304321 0 20.186584 4.0933685 27.472778 11.379593c7.286255 7.2862396 11.379578 17.168488 11.379578 27.472778l0 0l0 0c0 21.457565 -17.394775 38.85237 -38.852356 38.85237l-130.80798 0c-21.45758 0 -38.852417 -17.394806 -38.852417 -38.85237z" fill-rule="evenodd"/><path fill="#666666" d="m140.32957 223.11212l0 0c0 -5.076889 4.115631 -9.19252 9.19252 -9.19252l222.55038 0c2.4380188 0 4.776184 0.9684906 6.500122 2.6924286c1.7239075 1.7239227 2.6924133 4.0620728 2.6924133 6.5000916l0 0l0 0c0 5.076889 -4.115631 9.19252 -9.192535 9.19252l-222.55038 0c-5.076889 0 -9.19252 -4.115631 -9.19252 -9.19252z" fill-rule="evenodd"/><path fill="#666666" d="m394.51038 223.11212l0 0c0 -5.076889 4.115631 -9.19252 9.192505 -9.19252l222.55042 0c2.4379883 0 4.776123 0.9684906 6.500061 2.6924286c1.723938 1.7239227 2.6924438 4.0620728 2.6924438 6.5000916l0 0l0 0c0 5.076889 -4.1156616 9.19252 -9.192505 9.19252l-222.55042 0c-5.076874 0 -9.192505 -4.115631 -9.192505 -9.19252z" fill-rule="evenodd"/><path fill="#000000" fill-opacity="0.0" d="m13.2385235 6.3385825l749.2913 0l0 163.3071l-749.2913 0z" fill-rule="evenodd"/><path fill="#000000" d="m65.75415 28.275663q10.109375 0 17.78125 4.484373q7.6875 4.484375 12.046875 11.640625q0.890625 1.40625 0.890625 3.078125q0 2.4375 -2.296875 3.84375q-1.03125 0.5 -2.3125 0.5q-1.40625 0 -2.625 -0.703125q-1.203125 -0.703125 -1.96875 -1.984375q-7.171875 -11.25 -21.640625 -11.390625q-10.359379 0 -16.390629 4.359375q-6.015625 4.34375 -6.015625 12.40625q0 14.984379 24.203129 18.187504q15.875 2.296875 23.671875 9.71875q7.8125 7.421875 7.8125 19.59375q0 8.953125 -4.359375 15.484375q-4.34375 6.53125 -11.90625 9.921875q-7.546875 3.390625 -16.890625 3.390625q-12.156254 0 -21.562504 -5.1875q-9.40625 -5.1875 -13.499998 -14.015625q-0.515625 -0.890625 -0.515625 -2.046875q0 -1.796875 1.34375 -3.0q1.3437481 -1.21875 3.640623 -1.21875q1.546875 0 2.890625 0.828125q1.34375 0.828125 1.984375 2.375q2.9375 5.75 9.78125 9.28125q6.859375 3.515625 15.937504 3.515625q10.5 0 16.890625 -5.046875q6.40625 -5.0625 6.40625 -14.15625q0 -8.0625 -5.953125 -13.5625q-5.953125 -5.515625 -17.84375 -7.046875q-14.859379 -1.796875 -23.375004 -9.28125q-8.5 -7.484375 -8.5 -18.359379q0 -7.6875 4.15625 -13.5q4.15625 -5.828125 11.515625 -8.968748q7.359375 -3.140625 16.703129 -3.140625zm84.61101 30.593748q10.109375 0 18.171875 4.609375q8.0625 4.609379 12.734375 12.796879q4.671875 8.1875 4.671875 18.3125q0 10.109375 -4.609375 18.234375q-4.59375 8.125 -12.734375 12.734375q-8.125 4.609375 -18.234375 4.609375q-10.109375 0 -18.234375 -4.609375q-8.125 -4.609375 -12.734375 -12.734375q-4.609375 -8.125 -4.609375 -18.234375q0 -10.125 4.609375 -18.3125q4.609375 -8.1875 12.734375 -12.796879q8.125 -4.609375 18.234375 -4.609375zm0 8.953129q-7.296875 0 -13.25 3.46875q-5.953125 3.453125 -9.34375 9.53125q-3.390625 6.078125 -3.390625 13.765625q0 7.546875 3.390625 13.625q3.390625 6.078125 9.34375 9.546875q5.953125 3.453125 13.25 3.453125q7.421875 0 13.3125 -3.453125q5.890625 -3.46875 9.21875 -9.546875q3.328125 -6.078125 3.328125 -13.625q0 -7.6875 -3.328125 -13.765625q-3.328125 -6.078125 -9.21875 -9.53125q-5.890625 -3.46875 -13.3125 -3.46875zm84.734146 -8.953129q16.0 0 25.984375 12.281254q1.03125 1.15625 1.03125 2.6875q0 2.0625 -2.1875 3.59375q-1.140625 0.765625 -2.421875 0.765625q-1.921875 0 -3.71875 -1.921875q-3.84375 -4.21875 -8.453125 -6.328125q-4.59375 -2.125 -10.234375 -2.125q-7.03125 0 -12.546875 3.40625q-5.5 3.390625 -8.515625 9.53125q-3.0 6.140625 -3.0 13.828125q0 7.546875 3.203125 13.625q3.203125 6.078125 8.953125 9.546875q5.765625 3.453125 13.1875 3.453125q10.234375 0 16.515625 -5.515625q1.65625 -1.40625 3.453125 -1.40625q1.53125 0 2.8125 1.03125q1.796875 1.53125 1.796875 3.453125q0 1.65625 -1.28125 2.8125q-9.21875 8.578125 -23.296875 8.578125q-9.984375 0 -17.921875 -4.671875q-7.9375 -4.671875 -12.484375 -12.796875q-4.53125 -8.125 -4.53125 -18.109375q0 -10.25 4.34375 -18.375q4.359375 -8.125 12.03125 -12.734379q7.6875 -4.609375 17.28125 -4.609375zm48.381775 5.625004q0 -2.1718788 1.40625 -3.5781288q1.421875 -1.40625 3.59375 -1.40625q2.171875 0 3.515625 1.40625q1.34375 1.40625 1.34375 3.5781288l0 60.046875q0 2.171875 -1.34375 3.578125q-1.34375 1.40625 -3.515625 1.40625q-2.171875 0 -3.59375 -1.40625q-1.40625 -1.40625 -1.40625 -3.578125l0 -60.046875zm5.0 -32.250004q2.8125 0 4.859375 1.921875q2.046875 1.921875 2.046875 4.984375q0 2.953125 -2.046875 5.0q-2.046875 2.046875 -5.0 2.046875q-2.9375 0 -4.921875 -2.046875q-1.984375 -2.046875 -1.984375 -5.0q0 -3.0625 2.046875 -4.984375q2.046875 -1.921875 5.0 -1.921875zm61.82013 26.625q9.984375 0 18.109375 4.671875q8.125 4.671879 12.796875 12.875004q4.671875 8.1875 4.671875 18.171875l0 30.078125q0 2.046875 -1.40625 3.453125q-1.40625 1.40625 -3.578125 1.40625q-2.171875 0 -3.59375 -1.34375q-1.40625 -1.34375 -1.40625 -3.515625l0 -7.6875q-4.46875 6.140625 -11.390625 9.671875q-6.90625 3.515625 -15.21875 3.515625q-9.734375 0 -17.609375 -4.671875q-7.875 -4.671875 -12.421875 -12.796875q-4.53125 -8.125 -4.53125 -18.109375q0 -9.984375 4.671875 -18.171875q4.671875 -8.203125 12.796875 -12.875004q8.125 -4.671875 18.109375 -4.671875zm0 62.343754q7.296875 0 13.1875 -3.453125q5.890625 -3.46875 9.28125 -9.546875q3.390625 -6.078125 3.390625 -13.625q0 -7.5625 -3.390625 -13.640625q-3.390625 -6.078125 -9.28125 -9.59375q-5.890625 -3.53125 -13.1875 -3.53125q-7.296875 0 -13.25 3.53125q-5.953125 3.515625 -9.34375 9.59375q-3.390625 6.078125 -3.390625 13.640625q0 7.546875 3.390625 13.625q3.390625 6.078125 9.34375 9.546875q5.953125 3.453125 13.25 3.453125zm52.218506 -86.796875q0 -2.171875 1.40625 -3.515623q1.421875 -1.34375 3.46875 -1.34375q2.171875 0 3.515625 1.34375q1.34375 1.3437481 1.34375 3.515623l0 72.96875q0 5.5 2.234375 8.953125q2.25 3.453125 5.703125 3.453125l3.203125 0q1.921875 0 3.0625 1.34375q1.15625 1.34375 1.15625 3.53125q0 2.171875 -1.609375 3.515625q-1.59375 1.34375 -4.15625 1.34375l-1.65625 0q-7.8125 0 -12.75 -6.203125q-4.921875 -6.21875 -4.921875 -15.9375l0 -72.96875zm113.53754 -4.859373q7.6875 0 13.890625 3.265623q6.203125 3.265625 9.84375 9.03125q3.65625 5.75 3.65625 12.921875q0 6.78125 -3.65625 12.156254q-3.640625 5.375 -9.78125 8.328125q8.84375 2.421875 13.953125 8.765625q5.125 6.328125 5.125 15.9375q0 8.578125 -3.96875 15.296875q-3.96875 6.71875 -10.953125 10.5q-6.96875 3.765625 -15.921875 3.765625l-32.640625 0q-2.5625 0 -4.109375 -1.34375q-1.53125 -1.34375 -1.53125 -3.640625l0 -89.984375q0 -2.1875 1.40625 -3.593748q1.40625 -1.40625 3.59375 -1.40625l31.09375 0zm0 41.734375q7.8125 0 12.734375 -4.421875q4.9375 -4.421879 4.9375 -12.093754q0 -7.421875 -4.875 -11.515625q-4.859375 -4.109375 -12.796875 -4.109375l-26.109375 0l0 32.14063l26.109375 0zm2.1875 48.640625q9.34375 0 15.15625 -5.4375q5.828125 -5.453125 5.828125 -14.53125q0 -8.703125 -5.828125 -13.890625q-5.8125 -5.1875 -15.15625 -5.1875l-28.296875 0l0 39.046875l28.296875 0zm81.27252 -61.062504q10.109375 0 18.171875 4.609375q8.0625 4.609379 12.734375 12.796879q4.671875 8.1875 4.671875 18.3125q0 10.109375 -4.609375 18.234375q-4.59375 8.125 -12.734375 12.734375q-8.125 4.609375 -18.234375 4.609375q-10.109375 0 -18.234375 -4.609375q-8.125 -4.609375 -12.734375 -12.734375q-4.609375 -8.125 -4.609375 -18.234375q0 -10.125 4.609375 -18.3125q4.609375 -8.1875 12.734375 -12.796879q8.125 -4.609375 18.234375 -4.609375zm0 8.953129q-7.296875 0 -13.25 3.46875q-5.953125 3.453125 -9.34375 9.53125q-3.390625 6.078125 -3.390625 13.765625q0 7.546875 3.390625 13.625q3.390625 6.078125 9.34375 9.546875q5.953125 3.453125 13.25 3.453125q7.421875 0 13.3125 -3.453125q5.890625 -3.46875 9.21875 -9.546875q3.328125 -6.078125 3.328125 -13.625q0 -7.6875 -3.328125 -13.765625q-3.328125 -6.078125 -9.21875 -9.53125q-5.890625 -3.46875 -13.3125 -3.46875zm85.64038 51.84375q2.046875 0 3.3125 1.40625q1.28125 1.40625 1.28125 3.59375q0 2.046875 -1.53125 3.453125q-1.53125 1.40625 -3.84375 1.40625l-2.6875 0q-6.78125 0 -12.15625 -3.265625q-5.375 -3.265625 -8.390625 -8.828125q-3.0 -5.5625 -3.0 -12.609375l0 -34.171875l-8.3125 0q-2.0625 0 -3.28125 -1.21875q-1.203125 -1.21875 -1.203125 -3.015625q0 -1.921875 1.203125 -3.1250038q1.21875 -1.21875 3.28125 -1.21875l8.3125 0l0 -19.84375q0 -2.171875 1.34375 -3.578125q1.34375 -1.40625 3.515625 -1.40625q2.1875 0 3.59375 1.40625q1.40625 1.40625 1.40625 3.578125l0 19.84375l14.46875 0q2.046875 0 3.25 1.21875q1.21875 1.2031288 1.21875 3.1250038q0 1.796875 -1.21875 3.015625q-1.203125 1.21875 -3.25 1.21875l-14.46875 0l0 34.171875q0 6.53125 3.828125 10.6875q3.84375 4.15625 9.859375 4.15625l3.46875 0z" fill-rule="nonzero"/><path fill="#000000" fill-opacity="0.0" d="m13.246397 276.55118l749.2913 0l0 163.3071l-749.2913 0z" fill-rule="evenodd"/><path fill="#000000" d="m126.57904 319.94492q8.234375 0 12.640625 4.125q4.40625 4.125 4.40625 12.203125l0 26.078125l-5.453125 0l0 -6.5625q-1.921875 3.28125 -5.640625 5.125q-3.71875 1.84375 -8.828125 1.84375q-7.046875 0 -11.203125 -3.359375q-4.15625 -3.359375 -4.15625 -8.890625q0 -5.359375 3.875 -8.640625q3.875 -3.28125 12.359375 -3.28125l13.359375 0l0 -2.546875q0 -5.453125 -3.046875 -8.28125q-3.03125 -2.84375 -8.875 -2.84375q-4.0 0 -7.6875 1.328125q-3.671875 1.3125 -6.3125 3.625l-2.5625 -4.234375q3.203125 -2.71875 7.6875 -4.203125q4.484375 -1.484375 9.4375 -1.484375zm-2.0 38.328125q4.796875 0 8.234375 -2.203125q3.4375 -2.203125 5.125 -6.359375l0 -6.875l-13.203125 0q-10.796875 0 -10.796875 7.515625q0 3.6875 2.796875 5.8125q2.796875 2.109375 7.84375 2.109375zm55.441177 -55.28125l5.671875 0l0 59.359375l-5.671875 0l0 -59.359375zm21.519974 17.28125l5.671875 0l0 42.078125l-5.671875 0l0 -42.078125zm2.875 -9.203125q-1.765625 0 -2.96875 -1.203125q-1.1875 -1.203125 -1.1875 -2.875q0 -1.59375 1.1875 -2.796875q1.203125 -1.203125 2.96875 -1.203125q1.765625 0 2.953125 1.15625q1.203125 1.15625 1.203125 2.765625q0 1.75 -1.203125 2.953125q-1.1875 1.203125 -2.953125 1.203125zm40.082474 8.875q7.921875 0 12.593735 4.609375q4.6875 4.59375 4.6875 13.390625l0 24.40625l-5.6875 0l0 -23.84375q0 -6.5625 -3.2812347 -10.0q-3.265625 -3.4375 -9.359375 -3.4375q-6.796875 0 -10.765625 4.046875q-3.953125 4.03125 -3.953125 11.15625l0 22.078125l-5.671875 0l0 -42.078125l5.4375 0l0 7.765625q2.328125 -3.84375 6.4375 -5.96875q4.125 -2.125 9.5625 -2.125zm48.316177 21.28125l-9.921875 9.125l0 12.0l-5.671875 0l0 -59.359375l5.671875 0l0 40.234375l25.125 -22.953125l7.046875 0l-18.0 17.203125l19.671875 24.875l-6.953125 0l-16.96875 -21.125zm75.60245 18.5625q-1.59375 1.4375 -3.953125 2.203125q-2.359375 0.765625 -4.921875 0.765625q-5.921875 0 -9.125 -3.203125q-3.203125 -3.203125 -3.203125 -9.046875l0 -25.4375l-7.515625 0l0 -4.796875l7.515625 0l0 -9.203125l5.6875 0l0 9.203125l12.796875 0l0 4.796875l-12.796875 0l0 25.125q0 3.75 1.875 5.71875q1.875 1.953125 5.40625 1.953125q1.75 0 3.390625 -0.546875q1.640625 -0.5625 2.84375 -1.609375l2.0 4.078125zm27.526825 2.96875q-6.078125 0 -10.96875 -2.765625q-4.875 -2.765625 -7.671875 -7.640625q-2.796875 -4.875 -2.796875 -11.046875q0 -6.15625 2.796875 -11.03125q2.796875 -4.875 7.671875 -7.59375q4.890625 -2.734375 10.96875 -2.734375q6.078125 0 10.953125 2.734375q4.875 2.71875 7.640625 7.59375q2.765625 4.875 2.765625 11.03125q0 6.171875 -2.765625 11.046875q-2.765625 4.875 -7.640625 7.640625q-4.875 2.765625 -10.953125 2.765625zm0 -5.046875q4.46875 0 8.03125 -2.03125q3.5625 -2.046875 5.5625 -5.796875q2.0 -3.765625 2.0 -8.578125q0 -4.796875 -2.0 -8.546875q-2.0 -3.765625 -5.5625 -5.796875q-3.5625 -2.046875 -8.03125 -2.046875q-4.484375 0 -8.046875 2.046875q-3.5625 2.03125 -5.609375 5.796875q-2.03125 3.75 -2.03125 8.546875q0 4.8125 2.03125 8.578125q2.046875 3.75 5.609375 5.796875q3.5625 2.03125 8.046875 2.03125zm70.557434 5.125q-6.25 0 -11.96875 -2.0q-5.71875 -2.0 -8.828125 -5.28125l2.3125 -4.5625q3.046875 3.046875 8.078125 4.921875q5.046875 1.875 10.40625 1.875q7.515625 0 11.265625 -2.75q3.765625 -2.765625 3.765625 -7.171875q0 -3.359375 -2.046875 -5.359375q-2.03125 -2.0 -5.0 -3.078125q-2.953125 -1.078125 -8.234375 -2.359375q-6.3125 -1.59375 -10.078125 -3.078125q-3.75 -1.484375 -6.4375 -4.515625q-2.671875 -3.046875 -2.671875 -8.25q0 -4.234375 2.234375 -7.703125q2.234375 -3.484375 6.875 -5.5625q4.640625 -2.09375 11.53125 -2.09375q4.796875 0 9.390625 1.328125q4.609375 1.3125 7.96875 3.640625l-2.0 4.71875q-3.53125 -2.328125 -7.53125 -3.484375q-4.0 -1.15625 -7.828125 -1.15625q-7.359375 0 -11.09375 2.84375q-3.71875 2.828125 -3.71875 7.3125q0 3.359375 2.046875 5.40625q2.046875 2.03125 5.125 3.109375q3.078125 1.078125 8.28125 2.359375q6.15625 1.53125 9.953125 3.015625q3.796875 1.46875 6.4375 4.46875q2.640625 3.0 2.640625 8.125q0 4.234375 -2.28125 7.71875q-2.28125 3.484375 -7.0 5.53125q-4.71875 2.03125 -11.59375 2.03125zm49.996826 -0.078125q-6.234375 0 -11.15625 -2.71875q-4.921875 -2.734375 -7.71875 -7.640625q-2.796875 -4.921875 -2.796875 -11.09375q0 -6.15625 2.796875 -11.03125q2.796875 -4.875 7.71875 -7.59375q4.921875 -2.734375 11.15625 -2.734375q5.4375 0 9.71875 2.125q4.28125 2.125 6.765625 6.203125l-4.25 2.875q-2.078125 -3.109375 -5.28125 -4.671875q-3.1875 -1.5625 -6.953125 -1.5625q-4.5625 0 -8.203125 2.046875q-3.640625 2.03125 -5.6875 5.796875q-2.03125 3.75 -2.03125 8.546875q0 4.890625 2.03125 8.609375q2.046875 3.71875 5.6875 5.765625q3.640625 2.03125 8.203125 2.03125q3.765625 0 6.953125 -1.515625q3.203125 -1.53125 5.28125 -4.640625l4.25 2.875q-2.484375 4.078125 -6.8125 6.203125q-4.3125 2.125 -9.671875 2.125zm27.602478 -42.484375l5.671875 0l0 42.078125l-5.671875 0l0 -42.078125zm2.875 -9.203125q-1.765625 0 -2.96875 -1.203125q-1.1875 -1.203125 -1.1875 -2.875q0 -1.59375 1.1875 -2.796875q1.203125 -1.203125 2.96875 -1.203125q1.765625 0 2.953125 1.15625q1.203125 1.15625 1.203125 2.765625q0 1.75 -1.203125 2.953125q-1.1875 1.203125 -2.953125 1.203125zm55.285583 32.0l-35.203125 0q0.484375 6.5625 5.03125 10.609375q4.5625 4.03125 11.53125 4.03125q3.921875 0 7.203125 -1.390625q3.28125 -1.40625 5.671875 -4.125l3.203125 3.671875q-2.796875 3.359375 -7.0 5.125q-4.203125 1.765625 -9.234375 1.765625q-6.484375 0 -11.484375 -2.765625q-5.0 -2.765625 -7.796875 -7.640625q-2.796875 -4.875 -2.796875 -11.046875q0 -6.15625 2.671875 -11.03125q2.6875 -4.875 7.359375 -7.59375q4.6875 -2.734375 10.515625 -2.734375q5.84375 0 10.484375 2.734375q4.640625 2.71875 7.28125 7.5625q2.640625 4.828125 2.640625 11.0625l-0.078125 1.765625zm-20.328125 -18.234375q-6.078125 0 -10.203125 3.875q-4.109375 3.875 -4.671875 10.125l29.84375 0q-0.5625 -6.25 -4.6875 -10.125q-4.109375 -3.875 -10.28125 -3.875zm53.444946 -4.890625q7.921875 0 12.59375 4.609375q4.6875 4.59375 4.6875 13.390625l0 24.40625l-5.6875 0l0 -23.84375q0 -6.5625 -3.28125 -10.0q-3.265625 -3.4375 -9.359375 -3.4375q-6.796875 0 -10.765625 4.046875q-3.953125 4.03125 -3.953125 11.15625l0 22.078125l-5.671875 0l0 -42.078125l5.4375 0l0 7.765625q2.328125 -3.84375 6.4375 -5.96875q4.125 -2.125 9.5625 -2.125zm50.159912 42.8125q-6.234375 0 -11.15625 -2.71875q-4.921875 -2.734375 -7.71875 -7.640625q-2.796875 -4.921875 -2.796875 -11.09375q0 -6.15625 2.796875 -11.03125q2.796875 -4.875 7.71875 -7.59375q4.921875 -2.734375 11.15625 -2.734375q5.4375 0 9.71875 2.125q4.28125 2.125 6.765625 6.203125l-4.25 2.875q-2.078125 -3.109375 -5.28125 -4.671875q-3.1875 -1.5625 -6.953125 -1.5625q-4.5625 0 -8.203125 2.046875q-3.640625 2.03125 -5.6875 5.796875q-2.03125 3.75 -2.03125 8.546875q0 4.890625 2.03125 8.609375q2.046875 3.71875 5.6875 5.765625q3.640625 2.03125 8.203125 2.03125q3.765625 0 6.953125 -1.515625q3.203125 -1.53125 5.28125 -4.640625l4.25 2.875q-2.484375 4.078125 -6.8125 6.203125q-4.3125 2.125 -9.671875 2.125zm64.2431 -19.6875l-35.203125 0q0.484375 6.5625 5.03125 10.609375q4.5625 4.03125 11.53125 4.03125q3.921875 0 7.203125 -1.390625q3.28125 -1.40625 5.671875 -4.125l3.203125 3.671875q-2.796875 3.359375 -7.0 5.125q-4.203125 1.765625 -9.234375 1.765625q-6.484375 0 -11.484375 -2.765625q-5.0 -2.765625 -7.796875 -7.640625q-2.796875 -4.875 -2.796875 -11.046875q0 -6.15625 2.671875 -11.03125q2.6875 -4.875 7.359375 -7.59375q4.6875 -2.734375 10.515625 -2.734375q5.84375 0 10.484375 2.734375q4.640625 2.71875 7.28125 7.5625q2.640625 4.828125 2.640625 11.0625l-0.078125 1.765625zm-20.328125 -18.234375q-6.078125 0 -10.203125 3.875q-4.109375 3.875 -4.671875 10.125l29.84375 0q-0.5625 -6.25 -4.6875 -10.125q-4.109375 -3.875 -10.28125 -3.875z" fill-rule="nonzero"/></g></svg>