<?xml version="1.0" encoding="utf-8" ?>
<!DOCTYPE svg PUBLIC "-//W3C//DTD SVG 1.1//EN" "http://www.w3.org/Graphics/SVG/1.1/DTD/svg11.dtd">
<svg height="980" version="1.1" width="1452" xmlns="http://www.w3.org/2000/svg">
<polygon fill="#ffffff" points="22,182 932,182 932,205 981,205 981,653 22,653 22,182" stroke="#ffffff" stroke-width="1"/>
<rect fill="none" height="23" stroke="#000000" stroke-width="1" width="910" x="22" y="182"/>
<text font-family="Dialog" font-size="12" x="27" y="195">
Logic</text>
<rect fill="none" height="448" stroke="#000000" stroke-width="1" width="959" x="22" y="205"/>
<polygon fill="#ffffff" points="14,702 924,702 924,725 973,725 973,965 14,965 14,702" stroke="#ffffff" stroke-width="1"/>
<rect fill="none" height="23" stroke="#000000" stroke-width="1" width="910" x="14" y="702"/>
<text font-family="Dialog" font-size="12" x="19" y="715">
Data</text>
<rect fill="none" height="240" stroke="#000000" stroke-width="1" width="959" x="14" y="725"/>
<rect fill="#ffffff" height="312" stroke="#ffffff" stroke-width="1" width="184" x="374" y="286"/>
<rect fill="none" height="312" stroke="#000000" stroke-width="1" width="184" x="374" y="286"/>
<text font-family="Dialog" font-size="12" x="455" y="299">
Bot</text>
<rect fill="#000000" height="1" stroke="#000000" stroke-width="1" width="184" x="374" y="309"/>
<text font-family="Dialog" font-size="12" x="378" y="323">
name : String</text>
<text font-family="Dialog" font-size="12" x="378" y="339">
benutzer : Human</text>
<text font-family="Dialog" font-size="12" x="378" y="355">
logbuch : Logbook</text>
<text font-family="Dialog" font-size="12" x="378" y="371">
status : int</text>
<rect fill="#000000" height="1" stroke="#000000" stroke-width="1" width="184" x="374" y="397"/>
<text font-family="Dialog" font-size="12" x="378" y="411">
__init__()</text>
<text font-family="Dialog" font-size="12" x="378" y="427">
getTimeline() : bool</text>
<text font-family="Dialog" font-size="12" x="378" y="443">
getDirectMessages() : bool</text>
<text font-family="Dialog" font-size="12" x="378" y="459">
postTweet() : bool</text>
<text font-family="Dialog" font-size="12" x="378" y="475">
postRetweet() : bool</text>
<text font-family="Dialog" font-size="12" x="378" y="491">
likeTweet() : bool</text>
<text font-family="Dialog" font-size="12" x="378" y="507">
followUser() : bool</text>
<text font-family="Dialog" font-size="12" x="378" y="523">
sendDirectMessage() : bool</text>
<text font-family="Dialog" font-size="12" x="378" y="539">
searchTweet() : bool</text>
<text font-family="Dialog" font-size="12" x="378" y="555">
createAccount() : ApiObject</text>
<text font-family="Dialog" font-size="12" x="378" y="571">
runBot() : bool</text>
<rect fill="#ffffff" height="168" stroke="#ffffff" stroke-width="1" width="124" x="110" y="302"/>
<rect fill="none" height="168" stroke="#000000" stroke-width="1" width="124" x="110" y="302"/>
<text font-family="Dialog" font-size="12" x="137" y="315">
Bothandler</text>
<rect fill="#000000" height="1" stroke="#000000" stroke-width="1" width="124" x="110" y="325"/>
<text font-family="Dialog" font-size="12" x="114" y="339">
botList : List</text>
<text font-family="Dialog" font-size="12" x="114" y="355">
configPath : String</text>
<text font-family="Dialog" font-size="12" x="114" y="371">
config : Object</text>
<text font-family="Dialog" font-size="12" x="114" y="387">
newAttr : Integer</text>
<rect fill="#000000" height="1" stroke="#000000" stroke-width="1" width="124" x="110" y="397"/>
<text font-family="Dialog" font-size="12" x="114" y="411">
getBots() : List</text>
<text font-family="Dialog" font-size="12" x="114" y="427">
addBot() : bool</text>
<text font-family="Dialog" font-size="12" x="114" y="443">
deleteBot() : bool</text>
<text font-family="Dialog" font-size="12" x="114" y="459">
loadConfig() : bool</text>
<rect fill="#ffffff" height="152" stroke="#ffffff" stroke-width="1" width="144" x="702" y="766"/>
<rect fill="none" height="152" stroke="#000000" stroke-width="1" width="144" x="702" y="766"/>
<text font-family="Dialog" font-size="12" x="763" y="779">
Log</text>
<rect fill="#000000" height="1" stroke="#000000" stroke-width="1" width="144" x="702" y="789"/>
<text font-family="Dialog" font-size="12" x="706" y="803">
time : Date</text>
<text font-family="Dialog" font-size="12" x="706" y="819">
typ : String</text>
<text font-family="Dialog" font-size="12" x="706" y="835">
message : String</text>
<text font-family="Dialog" font-size="12" x="706" y="851">
newAttr : Integer</text>
<rect fill="#000000" height="1" stroke="#000000" stroke-width="1" width="144" x="702" y="861"/>
<text font-family="Dialog" font-size="12" x="706" y="875">
getTime() : Date</text>
<text font-family="Dialog" font-size="12" x="706" y="891">
getTyp() : String</text>
<text font-family="Dialog" font-size="12" x="706" y="907">
getMessage() : String</text>
<rect fill="#ffffff" height="232" stroke="#ffffff" stroke-width="1" width="198" x="630" y="230"/>
<rect fill="none" height="232" stroke="#000000" stroke-width="1" width="198" x="630" y="230"/>
<text font-family="Dialog" font-size="12" x="707" y="243">
Human</text>
<rect fill="#000000" height="1" stroke="#000000" stroke-width="1" width="198" x="630" y="253"/>
<text font-family="Dialog" font-size="12" x="634" y="267">
firstname : String</text>
<text font-family="Dialog" font-size="12" x="634" y="283">
lastname : String</text>
<text font-family="Dialog" font-size="12" x="634" y="299">
email : String</text>
<text font-family="Dialog" font-size="12" x="634" y="315">
tAccount : ApiObject</text>
<text font-family="Dialog" font-size="12" x="634" y="331">
newAttr : Integer</text>
<rect fill="#000000" height="1" stroke="#000000" stroke-width="1" width="198" x="630" y="341"/>
<text font-family="Dialog" font-size="12" x="634" y="355">
getFirstname() : String</text>
<text font-family="Dialog" font-size="12" x="634" y="371">
getLastname() : String</text>
<text font-family="Dialog" font-size="12" x="634" y="387">
getEmail() : String</text>
<text font-family="Dialog" font-size="12" x="634" y="403">
reactToDirectMessage() : bool</text>
<text font-family="Dialog" font-size="12" x="634" y="419">
reactToTweet() : bool</text>
<text font-family="Dialog" font-size="12" x="634" y="435">
reactToRetweet() : bool</text>
<text font-family="Dialog" font-size="12" x="634" y="451">
reactToTimeline() : bool</text>
<rect fill="#ffffff" height="104" stroke="#ffffff" stroke-width="1" width="144" x="406" y="798"/>
<rect fill="none" height="104" stroke="#000000" stroke-width="1" width="144" x="406" y="798"/>
<text font-family="Dialog" font-size="12" x="451" y="811">
Logbook</text>
<rect fill="#000000" height="1" stroke="#000000" stroke-width="1" width="144" x="406" y="821"/>
<text font-family="Dialog" font-size="12" x="410" y="835">
logs : List</text>
<text font-family="Dialog" font-size="12" x="410" y="851">
path : String</text>
<rect fill="#000000" height="1" stroke="#000000" stroke-width="1" width="144" x="406" y="861"/>
<text font-family="Dialog" font-size="12" x="410" y="875">
addLog(Log) : void</text>
<text font-family="Dialog" font-size="12" x="410" y="891">
searchLog() : Log</text>
<polyline fill="none" points="549,806 702,806" stroke="#000000" stroke-width="1"/>
<text font-family="Dialog" font-size="12" x="568" y="821">
1</text>
<text font-family="Dialog" font-size="12" x="673" y="821">
n</text>
<polyline fill="none" points="233,366 374,366" stroke="#000000" stroke-width="1"/>
<text font-family="Dialog" font-size="12" x="252" y="381">
1</text>
<text font-family="Dialog" font-size="12" x="345" y="381">
n</text>
<polyline fill="none" points="414,597 414,798" stroke="#000000" stroke-width="1"/>
<text font-family="Dialog" font-size="12" x="390" y="617">
1</text>
<text font-family="Dialog" font-size="12" x="390" y="770">
1</text>
<polyline fill="none" points="557,318 630,318" stroke="#000000" stroke-width="1"/>
<polygon fill="#ffffff" points="630,318 618,325 618,311" stroke="#ffffff" stroke-width="1"/>
<polygon fill="none" points="630,318 618,325 618,311" stroke="#000000" stroke-width="1"/>
<polygon fill="#ffffff" points="14,14 924,14 924,37 973,37 973,149 14,149 14,14" stroke="#ffffff" stroke-width="1"/>
<rect fill="none" height="23" stroke="#000000" stroke-width="1" width="910" x="14" y="14"/>
<text font-family="Dialog" font-size="12" x="19" y="27">
GUI</text>
<rect fill="none" height="112" stroke="#000000" stroke-width="1" width="959" x="14" y="37"/>
<polygon fill="#ffffff" points="1030,174 1388,174 1388,197 1437,197 1437,637 1030,637 1030,174" stroke="#ffffff" stroke-width="1"/>
<rect fill="none" height="23" stroke="#000000" stroke-width="1" width="358" x="1030" y="174"/>
<text font-family="Dialog" font-size="12" x="1035" y="187">
API Wrapper</text>
<rect fill="none" height="440" stroke="#000000" stroke-width="1" width="407" x="1030" y="197"/>
<rect fill="#ffffff" height="200" stroke="#ffffff" stroke-width="1" width="223" x="78" y="750"/>
<rect fill="none" height="200" stroke="#000000" stroke-width="1" width="223" x="78" y="750"/>
<text font-family="Dialog" font-size="12" x="160" y="763">
ConfigRW</text>
<rect fill="#000000" height="1" stroke="#000000" stroke-width="1" width="223" x="78" y="773"/>
<text font-family="Dialog" font-size="12" x="82" y="787">
__file : FileDescriptor</text>
<text font-family="Dialog" font-size="12" x="82" y="803">
__xmltree : XMLTree</text>
<text font-family="Dialog" font-size="12" x="82" y="819">
__root : XMLRoot</text>
<rect fill="#000000" height="1" stroke="#000000" stroke-width="1" width="223" x="78" y="837"/>
<text font-family="Dialog" font-size="12" x="82" y="851">
__init__(file) : void</text>
<text font-family="Dialog" font-size="12" x="82" y="867">
parseConfig() : void</text>
<text font-family="Dialog" font-size="12" x="82" y="883">
setCustomerTokens(ck,cs) : token</text>
<text font-family="Dialog" font-size="12" x="82" y="899">
getBots() : getProp</text>
<text font-family="Dialog" font-size="12" x="82" y="915">
addBot(id,object) : void</text>
<text font-family="Dialog" font-size="12" x="82" y="931">
writeConfig() : void</text>
<rect fill="#ffffff" height="200" stroke="#ffffff" stroke-width="1" width="313" x="1102" y="318"/>
<rect fill="none" height="200" stroke="#000000" stroke-width="1" width="313" x="1102" y="318"/>
<text font-family="Dialog" font-size="12" x="1237" y="331">
Twitter</text>
<rect fill="#000000" height="1" stroke="#000000" stroke-width="1" width="313" x="1102" y="341"/>
<text font-family="Dialog" font-size="12" x="1106" y="355">
__API : Api</text>
<rect fill="#000000" height="1" stroke="#000000" stroke-width="1" width="313" x="1102" y="365"/>
<text font-family="Dialog" font-size="12" x="1106" y="379">
__init__(accessInfo : associativeArray) : void</text>
<text font-family="Dialog" font-size="12" x="1106" y="395">
development_mode() : void</text>
<text font-family="Dialog" font-size="12" x="1106" y="411">
acitivate_log(path : String,name : String) : void</text>
<text font-family="Dialog" font-size="12" x="1106" y="427">
__log(message : String) : void</text>
<text font-family="Dialog" font-size="12" x="1106" y="443">
get_api_obj() : Api</text>
<text font-family="Dialog" font-size="12" x="1106" y="459">
tweet(text : String) : Status</text>
<text font-family="Dialog" font-size="12" x="1106" y="475">
retweet(tweet_id : String) : Status</text>
<text font-family="Dialog" font-size="12" x="1106" y="491">
reply() : Status</text>
<text font-family="Dialog" font-size="12" x="1106" y="507">
favor() : Status</text>
</svg>
