<?xml version="1.0" encoding="utf-8" ?>
<!DOCTYPE svg PUBLIC "-//W3C//DTD SVG 1.1//EN" "http://www.w3.org/Graphics/SVG/1.1/DTD/svg11.dtd">
<svg height="596" version="1.1" width="772" xmlns="http://www.w3.org/2000/svg">
<rect fill="#ffffff" height="264" stroke="#ffffff" stroke-width="1" width="166" x="294" y="126"/>
<rect fill="none" height="264" stroke="#000000" stroke-width="1" width="166" x="294" y="126"/>
<text font-family="Dialog" font-size="12" x="368" y="139">
Bot</text>
<rect fill="#000000" height="1" stroke="#000000" stroke-width="1" width="166" x="294" y="149"/>
<text font-family="Dialog" font-size="12" x="298" y="163">
name : String</text>
<text font-family="Dialog" font-size="12" x="298" y="179">
benutzer : User</text>
<text font-family="Dialog" font-size="12" x="298" y="195">
logbuch : Logbook</text>
<text font-family="Dialog" font-size="12" x="298" y="211">
status : int</text>
<rect fill="#000000" height="1" stroke="#000000" stroke-width="1" width="166" x="294" y="221"/>
<text font-family="Dialog" font-size="12" x="298" y="235">
postTweet() : bool</text>
<text font-family="Dialog" font-size="12" x="298" y="251">
postRetweet() : bool</text>
<text font-family="Dialog" font-size="12" x="298" y="267">
likeTweet() : bool</text>
<text font-family="Dialog" font-size="12" x="298" y="283">
followUser() : bool</text>
<text font-family="Dialog" font-size="12" x="298" y="299">
sendDirectMessage() : bool</text>
<text font-family="Dialog" font-size="12" x="298" y="315">
searchTweet() : bool</text>
<text font-family="Dialog" font-size="12" x="298" y="331">
getDirectMessages() : bool</text>
<text font-family="Dialog" font-size="12" x="298" y="347">
getTimeline() : bool</text>
<text font-family="Dialog" font-size="12" x="298" y="363">
runBot() : bool</text>
<text font-family="Dialog" font-size="12" x="298" y="379">
createAccount() : ApiObject</text>
<rect fill="#ffffff" height="168" stroke="#ffffff" stroke-width="1" width="120" x="14" y="86"/>
<rect fill="none" height="168" stroke="#000000" stroke-width="1" width="120" x="14" y="86"/>
<text font-family="Dialog" font-size="12" x="43" y="99">
Bothandler</text>
<rect fill="#000000" height="1" stroke="#000000" stroke-width="1" width="120" x="14" y="109"/>
<text font-family="Dialog" font-size="12" x="18" y="123">
botList : List</text>
<text font-family="Dialog" font-size="12" x="18" y="139">
configPath : String</text>
<text font-family="Dialog" font-size="12" x="18" y="155">
config : Object</text>
<text font-family="Dialog" font-size="12" x="18" y="171">
newAttr : Integer</text>
<rect fill="#000000" height="1" stroke="#000000" stroke-width="1" width="120" x="14" y="181"/>
<text font-family="Dialog" font-size="12" x="18" y="195">
getBots() : List</text>
<text font-family="Dialog" font-size="12" x="18" y="211">
addBot() : bool</text>
<text font-family="Dialog" font-size="12" x="18" y="227">
deleteBot() : bool</text>
<text font-family="Dialog" font-size="12" x="18" y="243">
loadConfig() : bool</text>
<rect fill="#ffffff" height="152" stroke="#ffffff" stroke-width="1" width="144" x="614" y="430"/>
<rect fill="none" height="152" stroke="#000000" stroke-width="1" width="144" x="614" y="430"/>
<text font-family="Dialog" font-size="12" x="676" y="443">
Log</text>
<rect fill="#000000" height="1" stroke="#000000" stroke-width="1" width="144" x="614" y="453"/>
<text font-family="Dialog" font-size="12" x="618" y="467">
time : Date</text>
<text font-family="Dialog" font-size="12" x="618" y="483">
typ : String</text>
<text font-family="Dialog" font-size="12" x="618" y="499">
message : String</text>
<text font-family="Dialog" font-size="12" x="618" y="515">
newAttr : Integer</text>
<rect fill="#000000" height="1" stroke="#000000" stroke-width="1" width="144" x="614" y="525"/>
<text font-family="Dialog" font-size="12" x="618" y="539">
getTime() : Date</text>
<text font-family="Dialog" font-size="12" x="618" y="555">
getTyp() : String</text>
<text font-family="Dialog" font-size="12" x="618" y="571">
getMessage() : String</text>
<rect fill="#ffffff" height="245" stroke="#ffffff" stroke-width="1" width="184" x="534" y="14"/>
<rect fill="none" height="245" stroke="#000000" stroke-width="1" width="184" x="534" y="14"/>
<text font-family="Dialog" font-size="12" font-style="italic" x="613" y="46">
User</text>
<text font-family="Dialog" font-size="12" x="582" y="28">
&lt;&lt;abstract&gt;&gt;</text>
<rect fill="#000000" height="1" stroke="#000000" stroke-width="1" width="184" x="534" y="56"/>
<text font-family="Dialog" font-size="12" x="538" y="70">
firstname : String</text>
<text font-family="Dialog" font-size="12" x="538" y="86">
lastname : String</text>
<text font-family="Dialog" font-size="12" x="538" y="102">
email : String</text>
<text font-family="Dialog" font-size="12" x="538" y="118">
tAccount : ApiObject</text>
<text font-family="Dialog" font-size="12" x="538" y="134">
newAttr : Integer</text>
<rect fill="#000000" height="1" stroke="#000000" stroke-width="1" width="184" x="534" y="144"/>
<text font-family="Dialog" font-size="12" x="538" y="158">
getFirstname() : String</text>
<text font-family="Dialog" font-size="12" x="538" y="174">
getLastname() : String</text>
<text font-family="Dialog" font-size="12" x="538" y="190">
getEmail() : String</text>
<text font-family="Dialog" font-size="12" x="538" y="206">
reactToDirectMessage() : bool</text>
<text font-family="Dialog" font-size="12" x="538" y="222">
reactToTweet() : bool</text>
<text font-family="Dialog" font-size="12" x="538" y="238">
reactToRetweet() : bool</text>
<text font-family="Dialog" font-size="12" x="538" y="254">
reactToTimeline() : bool</text>
<rect fill="#ffffff" height="88" stroke="#ffffff" stroke-width="1" width="144" x="318" y="462"/>
<rect fill="none" height="88" stroke="#000000" stroke-width="1" width="144" x="318" y="462"/>
<text font-family="Dialog" font-size="12" x="365" y="475">
Logbook</text>
<rect fill="#000000" height="1" stroke="#000000" stroke-width="1" width="144" x="318" y="485"/>
<text font-family="Dialog" font-size="12" x="322" y="499">
logs : List</text>
<rect fill="#000000" height="1" stroke="#000000" stroke-width="1" width="144" x="318" y="509"/>
<text font-family="Dialog" font-size="12" x="322" y="523">
addLog(Log) : void</text>
<text font-family="Dialog" font-size="12" x="322" y="539">
searchLog() : Log</text>
<polyline fill="none" points="461,470 614,470" stroke="#000000" stroke-width="1"/>
<text font-family="Dialog" font-size="12" x="480" y="485">
1</text>
<text font-family="Dialog" font-size="12" x="585" y="485">
n</text>
<polyline fill="none" points="133,150 294,150" stroke="#000000" stroke-width="1"/>
<text font-family="Dialog" font-size="12" x="152" y="165">
1</text>
<text font-family="Dialog" font-size="12" x="265" y="165">
n</text>
<polyline fill="none" points="326,389 326,462" stroke="#000000" stroke-width="1"/>
<text font-family="Dialog" font-size="12" x="302" y="409">
1</text>
<text font-family="Dialog" font-size="12" x="302" y="434">
1</text>
<polyline fill="none" points="406,126 406,70 534,70" stroke="#000000" stroke-width="1"/>
<polygon fill="#ffffff" points="534,70 522,77 522,63" stroke="#ffffff" stroke-width="1"/>
<polygon fill="none" points="534,70 522,77 522,63" stroke="#000000" stroke-width="1"/>
</svg>
