<?xml version="1.0" encoding="utf-8" ?>
<!DOCTYPE svg PUBLIC "-//W3C//DTD SVG 1.1//EN" "http://www.w3.org/Graphics/SVG/1.1/DTD/svg11.dtd">
<svg height="516" version="1.1" width="806" xmlns="http://www.w3.org/2000/svg">
<rect fill="#ffffff" height="248" stroke="#ffffff" stroke-width="1" width="166" x="294" y="62"/>
<rect fill="none" height="248" stroke="#000000" stroke-width="1" width="166" x="294" y="62"/>
<text font-family="Dialog" font-size="12" x="368" y="75">
Bot</text>
<rect fill="#000000" height="1" stroke="#000000" stroke-width="1" width="166" x="294" y="85"/>
<text font-family="Dialog" font-size="12" x="298" y="99">
name : String</text>
<text font-family="Dialog" font-size="12" x="298" y="115">
benutzer : User</text>
<text font-family="Dialog" font-size="12" x="298" y="131">
logbuch : Logbook</text>
<text font-family="Dialog" font-size="12" x="298" y="147">
newAttr : Integer</text>
<rect fill="#000000" height="1" stroke="#000000" stroke-width="1" width="166" x="294" y="157"/>
<text font-family="Dialog" font-size="12" x="298" y="171">
postTweet() : bool</text>
<text font-family="Dialog" font-size="12" x="298" y="187">
postReweet() : bool</text>
<text font-family="Dialog" font-size="12" x="298" y="203">
likeTweet() : bool</text>
<text font-family="Dialog" font-size="12" x="298" y="219">
followUser() : bool</text>
<text font-family="Dialog" font-size="12" x="298" y="235">
sendDirectMessage() : bool</text>
<text font-family="Dialog" font-size="12" x="298" y="251">
searchTweet() : bool</text>
<text font-family="Dialog" font-size="12" x="298" y="267">
getDirectMessages() : bool</text>
<text font-family="Dialog" font-size="12" x="298" y="283">
getTimeline() : bool</text>
<text font-family="Dialog" font-size="12" x="298" y="299">
runBot() : bool</text>
<rect fill="#ffffff" height="104" stroke="#ffffff" stroke-width="1" width="107" x="14" y="14"/>
<rect fill="none" height="104" stroke="#000000" stroke-width="1" width="107" x="14" y="14"/>
<text font-family="Dialog" font-size="12" x="32" y="27">
Botverwalter</text>
<rect fill="#000000" height="1" stroke="#000000" stroke-width="1" width="107" x="14" y="37"/>
<text font-family="Dialog" font-size="12" x="18" y="51">
botList : List</text>
<rect fill="#000000" height="1" stroke="#000000" stroke-width="1" width="107" x="14" y="61"/>
<text font-family="Dialog" font-size="12" x="18" y="75">
getBots() : List</text>
<text font-family="Dialog" font-size="12" x="18" y="91">
addBot() : bool</text>
<text font-family="Dialog" font-size="12" x="18" y="107">
deleteBot() : bool</text>
<rect fill="#ffffff" height="152" stroke="#ffffff" stroke-width="1" width="144" x="614" y="350"/>
<rect fill="none" height="152" stroke="#000000" stroke-width="1" width="144" x="614" y="350"/>
<text font-family="Dialog" font-size="12" x="676" y="363">
Log</text>
<rect fill="#000000" height="1" stroke="#000000" stroke-width="1" width="144" x="614" y="373"/>
<text font-family="Dialog" font-size="12" x="618" y="387">
time : Date</text>
<text font-family="Dialog" font-size="12" x="618" y="403">
typ : String</text>
<text font-family="Dialog" font-size="12" x="618" y="419">
message : String</text>
<text font-family="Dialog" font-size="12" x="618" y="435">
newAttr : Integer</text>
<rect fill="#000000" height="1" stroke="#000000" stroke-width="1" width="144" x="614" y="445"/>
<text font-family="Dialog" font-size="12" x="618" y="459">
getTime() : Date</text>
<text font-family="Dialog" font-size="12" x="618" y="475">
getTyp() : String</text>
<text font-family="Dialog" font-size="12" x="618" y="491">
getMessage() : String</text>
<rect fill="#ffffff" height="168" stroke="#ffffff" stroke-width="1" width="154" x="638" y="70"/>
<rect fill="none" height="168" stroke="#000000" stroke-width="1" width="154" x="638" y="70"/>
<text font-family="Dialog" font-size="12" x="702" y="83">
User</text>
<rect fill="#000000" height="1" stroke="#000000" stroke-width="1" width="154" x="638" y="93"/>
<text font-family="Dialog" font-size="12" x="642" y="107">
firstname : String</text>
<text font-family="Dialog" font-size="12" x="642" y="123">
lastname : String</text>
<text font-family="Dialog" font-size="12" x="642" y="139">
email : String</text>
<text font-family="Dialog" font-size="12" x="642" y="155">
tAccount : ApiObject</text>
<rect fill="#000000" height="1" stroke="#000000" stroke-width="1" width="154" x="638" y="165"/>
<text font-family="Dialog" font-size="12" x="642" y="179">
getFirstname() : String</text>
<text font-family="Dialog" font-size="12" x="642" y="195">
getLastname() : String</text>
<text font-family="Dialog" font-size="12" x="642" y="211">
getEmail() : String</text>
<text font-family="Dialog" font-size="12" x="642" y="227">
newOperation()</text>
<rect fill="#ffffff" height="104" stroke="#ffffff" stroke-width="1" width="142" x="310" y="374"/>
<rect fill="none" height="104" stroke="#000000" stroke-width="1" width="142" x="310" y="374"/>
<text font-family="Dialog" font-size="12" x="356" y="387">
Logbook</text>
<rect fill="#000000" height="1" stroke="#000000" stroke-width="1" width="142" x="310" y="397"/>
<text font-family="Dialog" font-size="12" x="314" y="411">
logs : List</text>
<rect fill="#000000" height="1" stroke="#000000" stroke-width="1" width="142" x="310" y="429"/>
<text font-family="Dialog" font-size="12" x="314" y="443">
addLog(Log) : void</text>
<text font-family="Dialog" font-size="12" x="314" y="459">
searchLog() : Log</text>
<polyline fill="none" points="451,382 614,382" stroke="#000000" stroke-width="1"/>
<text font-family="Dialog" font-size="12" x="470" y="397">
1</text>
<text font-family="Dialog" font-size="12" x="585" y="397">
n</text>
<polyline fill="none" points="459,110 638,110" stroke="#000000" stroke-width="1"/>
<text font-family="Dialog" font-size="12" x="478" y="125">
1</text>
<text font-family="Dialog" font-size="12" x="609" y="125">
1</text>
<polyline fill="none" points="120,86 294,86" stroke="#000000" stroke-width="1"/>
<text font-family="Dialog" font-size="12" x="139" y="101">
1</text>
<text font-family="Dialog" font-size="12" x="265" y="101">
n</text>
<polyline fill="none" points="318,309 318,374" stroke="#000000" stroke-width="1"/>
<text font-family="Dialog" font-size="12" x="294" y="329">
1</text>
<text font-family="Dialog" font-size="12" x="294" y="346">
1</text>
</svg>
