<?xml version="1.0" encoding="utf-8" ?>
<!DOCTYPE svg PUBLIC "-//W3C//DTD SVG 1.1//EN" "http://www.w3.org/Graphics/SVG/1.1/DTD/svg11.dtd">
<svg height="980" version="1.1" width="1996" xmlns="http://www.w3.org/2000/svg">
<polygon fill="#ffffff" points="14,174 924,174 924,197 973,197 973,645 14,645 14,174" stroke="#ffffff" stroke-width="1"/>
<rect fill="none" height="23" stroke="#000000" stroke-width="1" width="910" x="14" y="174"/>
<text font-family="Dialog" font-size="12" x="19" y="187">
Logic</text>
<rect fill="none" height="448" stroke="#000000" stroke-width="1" width="959" x="14" y="197"/>
<polygon fill="#ffffff" points="14,702 924,702 924,725 973,725 973,965 14,965 14,702" stroke="#ffffff" stroke-width="1"/>
<rect fill="none" height="23" stroke="#000000" stroke-width="1" width="910" x="14" y="702"/>
<text font-family="Dialog" font-size="12" x="19" y="715">
Data</text>
<rect fill="none" height="240" stroke="#000000" stroke-width="1" width="959" x="14" y="725"/>
<rect fill="#ffffff" height="312" stroke="#ffffff" stroke-width="1" width="184" x="366" y="278"/>
<rect fill="none" height="312" stroke="#000000" stroke-width="1" width="184" x="366" y="278"/>
<text font-family="Dialog" font-size="12" x="447" y="291">
Bot</text>
<rect fill="#000000" height="1" stroke="#000000" stroke-width="1" width="184" x="366" y="301"/>
<text font-family="Dialog" font-size="12" x="370" y="315">
name : String</text>
<text font-family="Dialog" font-size="12" x="370" y="331">
benutzer : Human</text>
<text font-family="Dialog" font-size="12" x="370" y="347">
logbuch : Logbook</text>
<text font-family="Dialog" font-size="12" x="370" y="363">
status : int</text>
<rect fill="#000000" height="1" stroke="#000000" stroke-width="1" width="184" x="366" y="389"/>
<text font-family="Dialog" font-size="12" x="370" y="403">
__init__()</text>
<text font-family="Dialog" font-size="12" x="370" y="419">
getTimeline() : bool</text>
<text font-family="Dialog" font-size="12" x="370" y="435">
getDirectMessages() : bool</text>
<text font-family="Dialog" font-size="12" x="370" y="451">
postTweet() : bool</text>
<text font-family="Dialog" font-size="12" x="370" y="467">
postRetweet() : bool</text>
<text font-family="Dialog" font-size="12" x="370" y="483">
likeTweet() : bool</text>
<text font-family="Dialog" font-size="12" x="370" y="499">
followUser() : bool</text>
<text font-family="Dialog" font-size="12" x="370" y="515">
sendDirectMessage() : bool</text>
<text font-family="Dialog" font-size="12" x="370" y="531">
searchTweet() : bool</text>
<text font-family="Dialog" font-size="12" x="370" y="547">
createAccount() : ApiObject</text>
<text font-family="Dialog" font-size="12" x="370" y="563">
runBot() : bool</text>
<rect fill="#ffffff" height="168" stroke="#ffffff" stroke-width="1" width="124" x="102" y="294"/>
<rect fill="none" height="168" stroke="#000000" stroke-width="1" width="124" x="102" y="294"/>
<text font-family="Dialog" font-size="12" x="129" y="307">
Bothandler</text>
<rect fill="#000000" height="1" stroke="#000000" stroke-width="1" width="124" x="102" y="317"/>
<text font-family="Dialog" font-size="12" x="106" y="331">
botList : List</text>
<text font-family="Dialog" font-size="12" x="106" y="347">
configPath : String</text>
<text font-family="Dialog" font-size="12" x="106" y="363">
config : Object</text>
<text font-family="Dialog" font-size="12" x="106" y="379">
newAttr : Integer</text>
<rect fill="#000000" height="1" stroke="#000000" stroke-width="1" width="124" x="102" y="389"/>
<text font-family="Dialog" font-size="12" x="106" y="403">
getBots() : List</text>
<text font-family="Dialog" font-size="12" x="106" y="419">
addBot() : bool</text>
<text font-family="Dialog" font-size="12" x="106" y="435">
deleteBot() : bool</text>
<text font-family="Dialog" font-size="12" x="106" y="451">
loadConfig() : bool</text>
<rect fill="#ffffff" height="152" stroke="#ffffff" stroke-width="1" width="144" x="702" y="766"/>
<rect fill="none" height="152" stroke="#000000" stroke-width="1" width="144" x="702" y="766"/>
<text font-family="Dialog" font-size="12" x="763" y="779">
Log</text>
<rect fill="#000000" height="1" stroke="#000000" stroke-width="1" width="144" x="702" y="789"/>
<text font-family="Dialog" font-size="12" x="706" y="803">
time : Date</text>
<text font-family="Dialog" font-size="12" x="706" y="819">
typ : String</text>
<text font-family="Dialog" font-size="12" x="706" y="835">
message : String</text>
<text font-family="Dialog" font-size="12" x="706" y="851">
newAttr : Integer</text>
<rect fill="#000000" height="1" stroke="#000000" stroke-width="1" width="144" x="702" y="861"/>
<text font-family="Dialog" font-size="12" x="706" y="875">
getTime() : Date</text>
<text font-family="Dialog" font-size="12" x="706" y="891">
getTyp() : String</text>
<text font-family="Dialog" font-size="12" x="706" y="907">
getMessage() : String</text>
<rect fill="#ffffff" height="232" stroke="#ffffff" stroke-width="1" width="198" x="622" y="222"/>
<rect fill="none" height="232" stroke="#000000" stroke-width="1" width="198" x="622" y="222"/>
<text font-family="Dialog" font-size="12" x="699" y="235">
Human</text>
<rect fill="#000000" height="1" stroke="#000000" stroke-width="1" width="198" x="622" y="245"/>
<text font-family="Dialog" font-size="12" x="626" y="259">
firstname : String</text>
<text font-family="Dialog" font-size="12" x="626" y="275">
lastname : String</text>
<text font-family="Dialog" font-size="12" x="626" y="291">
email : String</text>
<text font-family="Dialog" font-size="12" x="626" y="307">
tAccount : ApiObject</text>
<text font-family="Dialog" font-size="12" x="626" y="323">
newAttr : Integer</text>
<rect fill="#000000" height="1" stroke="#000000" stroke-width="1" width="198" x="622" y="333"/>
<text font-family="Dialog" font-size="12" x="626" y="347">
getFirstname() : String</text>
<text font-family="Dialog" font-size="12" x="626" y="363">
getLastname() : String</text>
<text font-family="Dialog" font-size="12" x="626" y="379">
getEmail() : String</text>
<text font-family="Dialog" font-size="12" x="626" y="395">
reactToDirectMessage() : bool</text>
<text font-family="Dialog" font-size="12" x="626" y="411">
reactToTweet() : bool</text>
<text font-family="Dialog" font-size="12" x="626" y="427">
reactToRetweet() : bool</text>
<text font-family="Dialog" font-size="12" x="626" y="443">
reactToTimeline() : bool</text>
<rect fill="#ffffff" height="104" stroke="#ffffff" stroke-width="1" width="144" x="406" y="798"/>
<rect fill="none" height="104" stroke="#000000" stroke-width="1" width="144" x="406" y="798"/>
<text font-family="Dialog" font-size="12" x="451" y="811">
Logbook</text>
<rect fill="#000000" height="1" stroke="#000000" stroke-width="1" width="144" x="406" y="821"/>
<text font-family="Dialog" font-size="12" x="410" y="835">
logs : List</text>
<text font-family="Dialog" font-size="12" x="410" y="851">
path : String</text>
<rect fill="#000000" height="1" stroke="#000000" stroke-width="1" width="144" x="406" y="861"/>
<text font-family="Dialog" font-size="12" x="410" y="875">
addLog(Log) : void</text>
<text font-family="Dialog" font-size="12" x="410" y="891">
searchLog() : Log</text>
<polyline fill="none" points="549,806 702,806" stroke="#000000" stroke-width="1"/>
<text font-family="Dialog" font-size="12" x="568" y="821">
1</text>
<text font-family="Dialog" font-size="12" x="673" y="821">
n</text>
<polyline fill="none" points="225,358 366,358" stroke="#000000" stroke-width="1"/>
<text font-family="Dialog" font-size="12" x="244" y="373">
1</text>
<text font-family="Dialog" font-size="12" x="337" y="373">
n</text>
<polyline fill="none" points="414,589 414,798" stroke="#000000" stroke-width="1"/>
<text font-family="Dialog" font-size="12" x="390" y="609">
1</text>
<text font-family="Dialog" font-size="12" x="390" y="770">
1</text>
<polyline fill="none" points="549,310 622,310" stroke="#000000" stroke-width="1"/>
<polygon fill="#ffffff" points="622,310 610,317 610,303" stroke="#ffffff" stroke-width="1"/>
<polygon fill="none" points="622,310 610,317 610,303" stroke="#000000" stroke-width="1"/>
<polygon fill="#ffffff" points="22,14 924,14 924,37 973,37 973,149 22,149 22,14" stroke="#ffffff" stroke-width="1"/>
<rect fill="none" height="23" stroke="#000000" stroke-width="1" width="902" x="22" y="14"/>
<text font-family="Dialog" font-size="12" x="27" y="27">
GUI</text>
<rect fill="none" height="112" stroke="#000000" stroke-width="1" width="951" x="22" y="37"/>
<polygon fill="#ffffff" points="1030,190 1932,190 1932,213 1981,213 1981,821 1030,821 1030,190" stroke="#ffffff" stroke-width="1"/>
<rect fill="none" height="23" stroke="#000000" stroke-width="1" width="902" x="1030" y="190"/>
<text font-family="Dialog" font-size="12" x="1035" y="203">
API Wrapper</text>
<rect fill="none" height="608" stroke="#000000" stroke-width="1" width="951" x="1030" y="213"/>
<rect fill="#ffffff" height="200" stroke="#ffffff" stroke-width="1" width="223" x="78" y="750"/>
<rect fill="none" height="200" stroke="#000000" stroke-width="1" width="223" x="78" y="750"/>
<text font-family="Dialog" font-size="12" x="160" y="763">
ConfigRW</text>
<rect fill="#000000" height="1" stroke="#000000" stroke-width="1" width="223" x="78" y="773"/>
<text font-family="Dialog" font-size="12" x="82" y="787">
__file : FileDescriptor</text>
<text font-family="Dialog" font-size="12" x="82" y="803">
__xmltree : XMLTree</text>
<text font-family="Dialog" font-size="12" x="82" y="819">
__root : XMLRoot</text>
<rect fill="#000000" height="1" stroke="#000000" stroke-width="1" width="223" x="78" y="837"/>
<text font-family="Dialog" font-size="12" x="82" y="851">
__init__(file) : void</text>
<text font-family="Dialog" font-size="12" x="82" y="867">
parseConfig() : void</text>
<text font-family="Dialog" font-size="12" x="82" y="883">
setCustomerTokens(ck,cs) : token</text>
<text font-family="Dialog" font-size="12" x="82" y="899">
getBots() : getProp</text>
<text font-family="Dialog" font-size="12" x="82" y="915">
addBot(id,object) : void</text>
<text font-family="Dialog" font-size="12" x="82" y="931">
writeConfig() : void</text>
<rect fill="#ffffff" height="568" stroke="#ffffff" stroke-width="1" width="862" x="1054" y="230"/>
<rect fill="none" height="568" stroke="#000000" stroke-width="1" width="862" x="1054" y="230"/>
<text font-family="Dialog" font-size="12" x="1464" y="243">
Twitter</text>
<rect fill="#000000" height="1" stroke="#000000" stroke-width="1" width="862" x="1054" y="253"/>
<text font-family="Dialog" font-size="12" x="1058" y="267">
__API : Api</text>
<rect fill="#000000" height="1" stroke="#000000" stroke-width="1" width="862" x="1054" y="277"/>
<text font-family="Dialog" font-size="12" x="1058" y="291">
__init__(accessInfo : associativeArray) : void</text>
<text font-family="Dialog" font-size="12" x="1058" y="307">
development_mode() : void</text>
<text font-family="Dialog" font-size="12" x="1058" y="323">
acitivate_log(path : String,name : String) : void</text>
<text font-family="Dialog" font-size="12" x="1058" y="339">
__log(message : String) : void</text>
<text font-family="Dialog" font-size="12" x="1058" y="355">
get_api_obj() : Api</text>
<text font-family="Dialog" font-size="12" x="1058" y="371">
tweet(text : String) : Status</text>
<text font-family="Dialog" font-size="12" x="1058" y="387">
retweet(tweet_id : String) : Status</text>
<text font-family="Dialog" font-size="12" x="1058" y="403">
reply(status_id : String,text : String) : Status</text>
<text font-family="Dialog" font-size="12" x="1058" y="419">
favor(status : String,status_id : String) : Status</text>
<text font-family="Dialog" font-size="12" x="1058" y="435">
send_dm(username : String,user_id : String,message : String) : Status</text>
<text font-family="Dialog" font-size="12" x="1058" y="451">
follow(username : String,user_id : String) : Status</text>
<text font-family="Dialog" font-size="12" x="1058" y="467">
search_tweet(term : String) : Status</text>
<text font-family="Dialog" font-size="12" x="1058" y="483">
search_user(term : String) : Status</text>
<text font-family="Dialog" font-size="12" x="1058" y="499">
get_subscriptions(self,username : String,user_id : String,count : String,page : String) : Status</text>
<text font-family="Dialog" font-size="12" x="1058" y="515">
get_tweets(username : String,user_id : String) : Status</text>
<text font-family="Dialog" font-size="12" x="1058" y="531">
get_followers(username : String,user_id : String,page : String)</text>
<text font-family="Dialog" font-size="12" x="1058" y="547">
get_my_geplies() : Status</text>
<text font-family="Dialog" font-size="12" x="1058" y="563">
get_my_retweets() : Status</text>
<text font-family="Dialog" font-size="12" x="1058" y="579">
get_my_mentions() : Status</text>
<text font-family="Dialog" font-size="12" x="1058" y="595">
get_my_dms() : Status</text>
<text font-family="Dialog" font-size="12" x="1058" y="611">
stream(users : List,terms : List)</text>
<text font-family="Dialog" font-size="12" x="1058" y="627">
limit_stream(users : String,terms : String,limit : String) : List</text>
<text font-family="Dialog" font-size="12" x="1058" y="643">
tweet_at_stream(message : String,nth_tweet : String,users : String,terms : String,limit : String) : Thread</text>
<text font-family="Dialog" font-size="12" x="1058" y="659">
tweet_list(list_of_tweets : List) : List</text>
<text font-family="Dialog" font-size="12" x="1058" y="675">
newOperation()</text>
<text font-family="Dialog" font-size="12" x="1058" y="691">
follow_by_category(category : String,delay : String) : void</text>
<text font-family="Dialog" font-size="12" x="1058" y="707">
react_to_my_mentions(actions : List) : void</text>
<text font-family="Dialog" font-size="12" x="1058" y="723">
react_to_stream(actions : List,terms : List,users : List,limit : Integer,include_retweets : Bool) : void</text>
<text font-family="Dialog" font-size="12" x="1058" y="739">
__react_to_status(action : list,status : String) : void</text>
<text font-family="Dialog" font-size="12" x="1058" y="755">
__tweet_at_juncture_thread(text : String,sleep_duration : Integer) : Status</text>
<text font-family="Dialog" font-size="12" x="1058" y="771">
__tweet_at_stream_thread(message : String,nth_tweet : Integer,users : List,terms : List,limit : Integer)</text>
<text font-family="Dialog" font-size="12" x="1058" y="787">
__react_to_stream_thread(f_actions,terms,users : List,limit : Integer,include_retweets)</text>
<polyline fill="none" points="1054,238 819,238" stroke="#000000" stroke-width="1"/>
<text font-family="Dialog" font-size="12" x="1025" y="253">
1</text>
<text font-family="Dialog" font-size="12" x="838" y="253">
1</text>
</svg>
