<?xml version="1.0" encoding="utf-8" ?>
<!DOCTYPE svg PUBLIC "-//W3C//DTD SVG 1.1//EN" "http://www.w3.org/Graphics/SVG/1.1/DTD/svg11.dtd">
<svg height="628" version="1.1" width="977" xmlns="http://www.w3.org/2000/svg">
<line fill="#333399" stroke="#333399" stroke-width="1" x1="311" x2="316" y1="512" y2="513"/>
<line fill="#333399" stroke="#333399" stroke-width="1" x1="321" x2="326" y1="514" y2="515"/>
<line fill="#333399" stroke="#333399" stroke-width="1" x1="331" x2="336" y1="516" y2="518"/>
<rect fill="#ffffff" height="600" stroke="#ffffff" stroke-width="1" width="736" x="110" y="14"/>
<rect fill="none" height="600" stroke="#000000" stroke-width="1" width="736" x="110" y="14"/>
<ellipse cx="459" cy="186" fill="#000000" rx="53.0" ry="20.0" stroke="#000000" stroke-width="1"/>
<ellipse cx="459" cy="186" fill="#ffffff" rx="52.0" ry="19.0" stroke="#ffffff" stroke-width="1"/>
<text font-family="Dialog" font-size="12" x="423" y="187">
Bot erstellen</text>
<ellipse cx="459" cy="242" fill="#000000" rx="53.0" ry="20.0" stroke="#000000" stroke-width="1"/>
<ellipse cx="459" cy="242" fill="#ffffff" rx="52.0" ry="19.0" stroke="#ffffff" stroke-width="1"/>
<text font-family="Dialog" font-size="12" x="426" y="243">
Bot löschen</text>
<ellipse cx="461" cy="311" fill="#000000" rx="79.0" ry="25.0" stroke="#000000" stroke-width="1"/>
<ellipse cx="461" cy="311" fill="#ffffff" rx="78.0" ry="24.0" stroke="#ffffff" stroke-width="1"/>
<text font-family="Dialog" font-size="12" x="396" y="312">
Botverhalten anpassen</text>
<ellipse cx="463" cy="384" fill="#000000" rx="81.0" ry="26.0" stroke="#000000" stroke-width="1"/>
<ellipse cx="463" cy="384" fill="#ffffff" rx="80.0" ry="25.0" stroke="#ffffff" stroke-width="1"/>
<text font-family="Dialog" font-size="12" x="395" y="385">
Botprotokoll betrachten</text>
<ellipse cx="461" cy="450" fill="#000000" rx="55.0" ry="20.0" stroke="#000000" stroke-width="1"/>
<ellipse cx="461" cy="450" fill="#ffffff" rx="54.0" ry="19.0" stroke="#ffffff" stroke-width="1"/>
<text font-family="Dialog" font-size="12" x="421" y="451">
Bot start/stop</text>
<ellipse cx="336" cy="117" fill="#000000" rx="66.0" ry="23.0" stroke="#000000" stroke-width="1"/>
<ellipse cx="336" cy="117" fill="#ffffff" rx="65.0" ry="22.0" stroke="#ffffff" stroke-width="1"/>
<text font-family="Dialog" font-size="12" x="284" y="118">
Botinfo einpflegen</text>
<line fill="#000000" stroke="#000000" stroke-width="1" x1="429" x2="425" y1="169" y2="167"/>
<line fill="#000000" stroke="#000000" stroke-width="1" x1="421" x2="416" y1="165" y2="162"/>
<line fill="#000000" stroke="#000000" stroke-width="1" x1="412" x2="407" y1="160" y2="157"/>
<line fill="#000000" stroke="#000000" stroke-width="1" x1="403" x2="399" y1="155" y2="152"/>
<line fill="#000000" stroke="#000000" stroke-width="1" x1="394" x2="390" y1="150" y2="147"/>
<line fill="#000000" stroke="#000000" stroke-width="1" x1="385" x2="381" y1="145" y2="142"/>
<line fill="#000000" stroke="#000000" stroke-width="1" x1="377" x2="372" y1="140" y2="137"/>
<line fill="#000000" stroke="#000000" stroke-width="1" x1="383" x2="370" y1="135" y2="136"/>
<line fill="#000000" stroke="#000000" stroke-width="1" x1="377" x2="370" y1="147" y2="136"/>
<text font-family="Dialog" font-size="12" x="393" y="144">
&lt;&lt;include&gt;&gt;</text>
<ellipse cx="634" cy="129" fill="#000000" rx="84.0" ry="27.0" stroke="#000000" stroke-width="1"/>
<ellipse cx="634" cy="129" fill="#ffffff" rx="83.0" ry="26.0" stroke="#ffffff" stroke-width="1"/>
<text font-family="Dialog" font-size="12" x="563" y="130">
Twitter Account erstellen</text>
<line fill="#000000" stroke="#000000" stroke-width="1" x1="498" x2="502" y1="172" y2="171"/>
<line fill="#000000" stroke="#000000" stroke-width="1" x1="507" x2="512" y1="169" y2="168"/>
<line fill="#000000" stroke="#000000" stroke-width="1" x1="517" x2="521" y1="166" y2="165"/>
<line fill="#000000" stroke="#000000" stroke-width="1" x1="526" x2="531" y1="163" y2="162"/>
<line fill="#000000" stroke="#000000" stroke-width="1" x1="536" x2="540" y1="160" y2="158"/>
<line fill="#000000" stroke="#000000" stroke-width="1" x1="545" x2="550" y1="157" y2="155"/>
<line fill="#000000" stroke="#000000" stroke-width="1" x1="555" x2="559" y1="154" y2="152"/>
<line fill="#000000" stroke="#000000" stroke-width="1" x1="564" x2="569" y1="151" y2="149"/>
<line fill="#000000" stroke="#000000" stroke-width="1" x1="564" x2="574" y1="157" y2="147"/>
<line fill="#000000" stroke="#000000" stroke-width="1" x1="560" x2="574" y1="144" y2="147"/>
<text font-family="Dialog" font-size="12" x="521" y="178">
&lt;&lt;include&gt;&gt;</text>
<ellipse cx="658" cy="271" fill="#000000" rx="76.0" ry="25.0" stroke="#000000" stroke-width="1"/>
<ellipse cx="658" cy="271" fill="#ffffff" rx="75.0" ry="24.0" stroke="#ffffff" stroke-width="1"/>
<text font-family="Dialog" font-size="12" x="596" y="272">
Begrenzungen setzen</text>
<line fill="#000000" stroke="#000000" stroke-width="1" x1="592" x2="588" y1="283" y2="284"/>
<line fill="#000000" stroke="#000000" stroke-width="1" x1="583" x2="578" y1="285" y2="286"/>
<line fill="#000000" stroke="#000000" stroke-width="1" x1="573" x2="568" y1="287" y2="288"/>
<line fill="#000000" stroke="#000000" stroke-width="1" x1="563" x2="558" y1="289" y2="290"/>
<line fill="#000000" stroke="#000000" stroke-width="1" x1="553" x2="548" y1="291" y2="292"/>
<line fill="#000000" stroke="#000000" stroke-width="1" x1="543" x2="538" y1="293" y2="294"/>
<line fill="#000000" stroke="#000000" stroke-width="1" x1="533" x2="528" y1="295" y2="296"/>
<line fill="#000000" stroke="#000000" stroke-width="1" x1="536" x2="526" y1="287" y2="297"/>
<line fill="#000000" stroke="#000000" stroke-width="1" x1="539" x2="526" y1="301" y2="297"/>
<text font-family="Dialog" font-size="12" x="545" y="307">
&lt;&lt;extend&gt;&gt;</text>
<polygon fill="#ffffff" points="670,334 799,334 809,344 809,392 670,392 670,334" stroke="#ffffff" stroke-width="1"/>
<polyline fill="none" points="670,334 799,334 809,344 809,392 670,392 670,334" stroke="#000000" stroke-width="1"/>
<polygon fill="#ffffff" points="799,334 809,344 799,344 799,334" stroke="#ffffff" stroke-width="1"/>
<polyline fill="none" points="799,334 809,344 799,344 799,334" stroke="#000000" stroke-width="1"/>
<text font-family="Dialog" font-size="12" x="673" y="349">
z. B. max. 20 Tweets</text>
<text font-family="Dialog" font-size="12" x="673" y="364">
pro Tag</text>
<line fill="#333399" stroke="#333399" stroke-width="1" x1="670" x2="669" y1="334" y2="329"/>
<line fill="#333399" stroke="#333399" stroke-width="1" x1="668" x2="667" y1="324" y2="319"/>
<line fill="#333399" stroke="#333399" stroke-width="1" x1="666" x2="665" y1="314" y2="309"/>
<line fill="#333399" stroke="#333399" stroke-width="1" x1="664" x2="663" y1="304" y2="299"/>
<ellipse cx="674" cy="428" fill="#000000" rx="60.0" ry="22.0" stroke="#000000" stroke-width="1"/>
<ellipse cx="674" cy="428" fill="#ffffff" rx="59.0" ry="21.0" stroke="#ffffff" stroke-width="1"/>
<text font-family="Dialog" font-size="12" x="628" y="429">
Export Protokoll</text>
<line fill="#000000" stroke="#000000" stroke-width="1" x1="621" x2="617" y1="417" y2="416"/>
<line fill="#000000" stroke="#000000" stroke-width="1" x1="612" x2="607" y1="415" y2="414"/>
<line fill="#000000" stroke="#000000" stroke-width="1" x1="602" x2="597" y1="413" y2="412"/>
<line fill="#000000" stroke="#000000" stroke-width="1" x1="592" x2="587" y1="411" y2="410"/>
<line fill="#000000" stroke="#000000" stroke-width="1" x1="582" x2="577" y1="409" y2="408"/>
<line fill="#000000" stroke="#000000" stroke-width="1" x1="572" x2="567" y1="407" y2="406"/>
<line fill="#000000" stroke="#000000" stroke-width="1" x1="562" x2="557" y1="405" y2="404"/>
<line fill="#000000" stroke="#000000" stroke-width="1" x1="552" x2="547" y1="403" y2="402"/>
<line fill="#000000" stroke="#000000" stroke-width="1" x1="542" x2="537" y1="401" y2="400"/>
<line fill="#000000" stroke="#000000" stroke-width="1" x1="532" x2="530" y1="399" y2="398"/>
<line fill="#000000" stroke="#000000" stroke-width="1" x1="543" x2="530" y1="393" y2="398"/>
<line fill="#000000" stroke="#000000" stroke-width="1" x1="540" x2="530" y1="407" y2="398"/>
<text font-family="Dialog" font-size="12" x="570" y="383">
&lt;&lt;extend&gt;&gt;</text>
<ellipse cx="603" cy="554" fill="#000000" rx="53.0" ry="20.0" stroke="#000000" stroke-width="1"/>
<ellipse cx="603" cy="554" fill="#ffffff" rx="52.0" ry="19.0" stroke="#ffffff" stroke-width="1"/>
<text font-family="Dialog" font-size="12" x="566" y="555">
Login Twitter</text>
<line fill="#000000" stroke="#000000" stroke-width="1" x1="485" x2="489" y1="467" y2="470"/>
<line fill="#000000" stroke="#000000" stroke-width="1" x1="493" x2="497" y1="473" y2="476"/>
<line fill="#000000" stroke="#000000" stroke-width="1" x1="501" x2="505" y1="479" y2="482"/>
<line fill="#000000" stroke="#000000" stroke-width="1" x1="509" x2="513" y1="485" y2="488"/>
<line fill="#000000" stroke="#000000" stroke-width="1" x1="517" x2="521" y1="491" y2="494"/>
<line fill="#000000" stroke="#000000" stroke-width="1" x1="525" x2="529" y1="497" y2="500"/>
<line fill="#000000" stroke="#000000" stroke-width="1" x1="533" x2="537" y1="503" y2="506"/>
<line fill="#000000" stroke="#000000" stroke-width="1" x1="541" x2="545" y1="509" y2="512"/>
<line fill="#000000" stroke="#000000" stroke-width="1" x1="549" x2="553" y1="515" y2="518"/>
<line fill="#000000" stroke="#000000" stroke-width="1" x1="557" x2="561" y1="521" y2="524"/>
<line fill="#000000" stroke="#000000" stroke-width="1" x1="565" x2="569" y1="527" y2="530"/>
<line fill="#000000" stroke="#000000" stroke-width="1" x1="573" x2="578" y1="533" y2="536"/>
<line fill="#000000" stroke="#000000" stroke-width="1" x1="564" x2="578" y1="534" y2="536"/>
<line fill="#000000" stroke="#000000" stroke-width="1" x1="572" x2="578" y1="523" y2="536"/>
<text font-family="Dialog" font-size="12" x="459" y="523">
&lt;&lt;include&gt;&gt;</text>
<ellipse cx="532" cy="500" fill="#000000" rx="0.5" ry="0.5" stroke="#000000" stroke-width="1"/>
<ellipse cx="533" cy="501" fill="#ffffff" rx="-0.5" ry="-0.5" stroke="#ffffff" stroke-width="1"/>
<ellipse cx="381" cy="531" fill="#000000" rx="55.0" ry="21.0" stroke="#000000" stroke-width="1"/>
<ellipse cx="381" cy="531" fill="#ffffff" rx="54.0" ry="20.0" stroke="#ffffff" stroke-width="1"/>
<text font-family="Dialog" font-size="12" x="340" y="532">
Logout Twitter</text>
<line fill="#000000" stroke="#000000" stroke-width="1" x1="399" x2="402" y1="511" y2="508"/>
<line fill="#000000" stroke="#000000" stroke-width="1" x1="406" x2="409" y1="504" y2="501"/>
<line fill="#000000" stroke="#000000" stroke-width="1" x1="413" x2="416" y1="497" y2="494"/>
<line fill="#000000" stroke="#000000" stroke-width="1" x1="420" x2="423" y1="490" y2="486"/>
<line fill="#000000" stroke="#000000" stroke-width="1" x1="427" x2="430" y1="483" y2="479"/>
<line fill="#000000" stroke="#000000" stroke-width="1" x1="434" x2="437" y1="476" y2="472"/>
<line fill="#000000" stroke="#000000" stroke-width="1" x1="437" x2="441" y1="481" y2="468"/>
<line fill="#000000" stroke="#000000" stroke-width="1" x1="427" x2="441" y1="471" y2="468"/>
<text font-family="Dialog" font-size="12" x="320" y="487">
&lt;&lt;extend&gt;&gt;</text>
<ellipse cx="420" cy="490" fill="#000000" rx="0.5" ry="0.5" stroke="#000000" stroke-width="1"/>
<ellipse cx="421" cy="491" fill="#ffffff" rx="-0.5" ry="-0.5" stroke="#ffffff" stroke-width="1"/>
<text font-family="Dialog" font-size="12" x="25" y="434">
Benutzer</text>
<ellipse cx="50" cy="383" fill="#000000" rx="8.0" ry="7.5" stroke="#000000" stroke-width="1"/>
<ellipse cx="50" cy="383" fill="#ffffff" rx="7.0" ry="6.5" stroke="#ffffff" stroke-width="1"/>
<line fill="#000000" stroke="#000000" stroke-width="1" x1="50" x2="50" y1="391" y2="406"/>
<line fill="#000000" stroke="#000000" stroke-width="1" x1="40" x2="60" y1="396" y2="396"/>
<line fill="#000000" stroke="#000000" stroke-width="1" x1="50" x2="45" y1="406" y2="421"/>
<line fill="#000000" stroke="#000000" stroke-width="1" x1="50" x2="55" y1="406" y2="421"/>
<polyline fill="none" points="58,380 426,201" stroke="#333399" stroke-width="1"/>
<polyline fill="none" points="59,383 392,323" stroke="#000000" stroke-width="1"/>
<polyline fill="none" points="60,396 382,386" stroke="#000000" stroke-width="1"/>
<polyline fill="none" points="60,396 409,443" stroke="#000000" stroke-width="1"/>
<polyline fill="none" points="58,380 419,255" stroke="#000000" stroke-width="1"/>
<polygon fill="#ffffff" points="118,454 301,454 311,464 311,512 118,512 118,454" stroke="#ffffff" stroke-width="1"/>
<polyline fill="none" points="118,454 301,454 311,464 311,512 118,512 118,454" stroke="#000000" stroke-width="1"/>
<polygon fill="#ffffff" points="301,454 311,464 301,464 301,454" stroke="#ffffff" stroke-width="1"/>
<polyline fill="none" points="301,454 311,464 301,464 301,454" stroke="#000000" stroke-width="1"/>
<text font-family="Dialog" font-size="12" x="121" y="469">
Bedingung{Bot.status=start}</text>
<text font-family="Dialog" font-size="12" x="121" y="484">
Extension point: Login Twitter</text>
<line fill="#000000" stroke="#000000" stroke-width="1" x1="420" x2="415" y1="490" y2="490"/>
<line fill="#000000" stroke="#000000" stroke-width="1" x1="410" x2="405" y1="490" y2="490"/>
<line fill="#000000" stroke="#000000" stroke-width="1" x1="400" x2="395" y1="490" y2="490"/>
<line fill="#000000" stroke="#000000" stroke-width="1" x1="390" x2="385" y1="490" y2="490"/>
<line fill="#000000" stroke="#000000" stroke-width="1" x1="380" x2="375" y1="490" y2="490"/>
<line fill="#000000" stroke="#000000" stroke-width="1" x1="370" x2="365" y1="490" y2="490"/>
<line fill="#000000" stroke="#000000" stroke-width="1" x1="360" x2="355" y1="490" y2="490"/>
<line fill="#000000" stroke="#000000" stroke-width="1" x1="350" x2="345" y1="490" y2="490"/>
<line fill="#000000" stroke="#000000" stroke-width="1" x1="340" x2="335" y1="490" y2="490"/>
<line fill="#000000" stroke="#000000" stroke-width="1" x1="330" x2="325" y1="490" y2="490"/>
<line fill="#000000" stroke="#000000" stroke-width="1" x1="320" x2="315" y1="490" y2="490"/>
<text font-family="Dialog" font-size="12" x="908" y="402">
Twitter</text>
<ellipse cx="928" cy="351" fill="#000000" rx="8.0" ry="7.5" stroke="#000000" stroke-width="1"/>
<ellipse cx="928" cy="351" fill="#ffffff" rx="7.0" ry="6.5" stroke="#ffffff" stroke-width="1"/>
<line fill="#000000" stroke="#000000" stroke-width="1" x1="928" x2="928" y1="359" y2="374"/>
<line fill="#000000" stroke="#000000" stroke-width="1" x1="918" x2="938" y1="364" y2="364"/>
<line fill="#000000" stroke="#000000" stroke-width="1" x1="928" x2="923" y1="374" y2="389"/>
<line fill="#000000" stroke="#000000" stroke-width="1" x1="928" x2="933" y1="374" y2="389"/>
<polyline fill="none" points="666,153 920,346" stroke="#000000" stroke-width="1"/>
<polyline fill="none" points="923,412 766,526 651,545" stroke="#000000" stroke-width="1"/>
<polyline fill="none" points="423,544 614,606 726,582 923,412" stroke="#000000" stroke-width="1"/>
<rect fill="none" height="21" stroke="#ffffff" stroke-width="1" width="82" x="430" y="30"/>
<text font-family="Dialog" font-size="16" font-weight="bold" x="431" y="47">
Socialbot</text>
<polygon fill="#ffffff" points="566,454 755,454 765,464 765,512 566,512 566,454" stroke="#ffffff" stroke-width="1"/>
<polyline fill="none" points="566,454 755,454 765,464 765,512 566,512 566,454" stroke="#000000" stroke-width="1"/>
<polygon fill="#ffffff" points="755,454 765,464 755,464 755,454" stroke="#ffffff" stroke-width="1"/>
<polyline fill="none" points="755,454 765,464 755,464 755,454" stroke="#000000" stroke-width="1"/>
<text font-family="Dialog" font-size="12" x="569" y="469">
Bedingung{Bot.account=true}</text>
<line fill="#000000" stroke="#000000" stroke-width="1" x1="532" x2="537" y1="500" y2="500"/>
<line fill="#000000" stroke="#000000" stroke-width="1" x1="542" x2="547" y1="500" y2="500"/>
<line fill="#000000" stroke="#000000" stroke-width="1" x1="552" x2="557" y1="500" y2="500"/>
<line fill="#000000" stroke="#000000" stroke-width="1" x1="562" x2="566" y1="500" y2="500"/>
</svg>
