<?xml version="1.0" encoding="UTF-8" standalone="no"?><svg xmlns="http://www.w3.org/2000/svg" xmlns:xlink="http://www.w3.org/1999/xlink" contentScriptType="application/ecmascript" contentStyleType="text/css" height="796px" preserveAspectRatio="none" style="width:814px;height:796px;" version="1.1" viewBox="0 0 814 796"
    width="814px" zoomAndPan="magnify"><defs><filter height="300%" id="f1a7ilecvczb2n" width="300%" x="-1" y="-1"><feGaussianBlur result="blurOut" stdDeviation="2.0"/><feColorMatrix in="blurOut" result="blurOut2" type="matrix" values="0 0 0 0 0 0 0 0 0 0 0 0 0 0 0 0 0 0 .4 0"/><feOffset dx="4.0" dy="4.0" in="blurOut2" result="blurOut3"/><feBlend in="SourceGraphic" in2="blurOut3" mode="normal"/></filter></defs><g><!--cluster BusinessLayer--><polygon fill="#FFFFFF" filter="url(#f1a7ilecvczb2n)" points="14,66,135,66,142,88.2969,696,88.2969,696,542,14,542,14,66" style="stroke: #000000; stroke-width: 1.5;"/><line style="stroke: #000000; stroke-width: 1.5;" x1="14" x2="142" y1="88.2969" y2="88.2969"/><text fill="#000000" font-family="sans-serif" font-size="14" font-weight="bold" lengthAdjust="spacingAndGlyphs" textLength="115" x="18" y="80.9951">BusinessLayer</text><!--cluster DataAccessLayer--><polygon fill="#FFFFFF" filter="url(#f1a7ilecvczb2n)" points="539,567,681,567,688,589.2969,691,589.2969,691,784,539,784,539,567" style="stroke: #000000; stroke-width: 1.5;"/><line style="stroke: #000000; stroke-width: 1.5;" x1="539" x2="688" y1="589.2969" y2="589.2969"/><text fill="#000000" font-family="sans-serif" font-size="14" font-weight="bold" lengthAdjust="spacingAndGlyphs" textLength="136" x="543" y="581.9951">DataAccessLayer</text><!--class Singleton--><rect fill="#FEFECE" filter="url(#f1a7ilecvczb2n)" height="125.9609" id="Singleton" style="stroke: #A80036; stroke-width: 1.5;" width="202" x="486" y="128.5"/><ellipse cx="548.25" cy="147.4688" fill="#FF7700" rx="11" ry="11" style="stroke: #A80036; stroke-width: 1.0;"/><path d="M547.7344,148.0313 Q545.875,147.3281 545.2266,146.5547 Q544.5781,145.7813 544.5781,144.4688 Q544.5781,142.7813 545.6563,141.8125 Q546.7344,140.8438 548.6094,140.8438 Q549.4688,140.8438 550.3203,141.0391 Q551.1719,141.2344 552.0156,141.625 L552.0156,144.0156 Q551.2344,143.4531 550.4141,143.1641 Q549.5938,142.875 548.7969,142.875 Q547.9219,142.875 547.4453,143.2344 Q546.9688,143.5938 546.9688,144.25 Q546.9688,144.7656 547.3125,145.1016 Q547.6563,145.4375 548.75,145.8438 L549.8125,146.25 Q551.2969,146.7969 552.0078,147.7031 Q552.7188,148.6094 552.7188,149.9844 Q552.7188,151.8594 551.6094,152.7813 Q550.5,153.7031 548.25,153.7031 Q547.3281,153.7031 546.4063,153.4844 Q545.4844,153.2656 544.625,152.8438 L544.625,150.3125 Q545.5938,151 546.5156,151.3438 Q547.4375,151.6875 548.3281,151.6875 Q549.2344,151.6875 549.7344,151.2734 Q550.2344,150.8594 550.2344,150.125 Q550.2344,149.5625 549.8984,149.1484 Q549.5625,148.7344 548.9375,148.4844 L547.7344,148.0313 Z "/><text fill="#000000" font-family="sans-serif" font-size="12" font-style="italic" lengthAdjust="spacingAndGlyphs" textLength="73" x="566.75" y="144.6387">«Singleton»</text><text fill="#000000" font-family="sans-serif" font-size="12" lengthAdjust="spacingAndGlyphs" textLength="59" x="573.75" y="158.6074">Singleton</text><line style="stroke: #A80036; stroke-width: 1.5;" x1="487" x2="687" y1="166.4375" y2="166.4375"/><rect fill="none" height="6" style="stroke: #C82930; stroke-width: 1.0;" width="6" x="494" y="175.3398"/><text fill="#000000" font-family="sans-serif" font-size="11" lengthAdjust="spacingAndGlyphs" textLength="158" x="506" y="180.6479">ShortLifeUserToken : String</text><rect fill="none" height="6" style="stroke: #C82930; stroke-width: 1.0;" width="6" x="494" y="188.1445"/><text fill="#000000" font-family="sans-serif" font-size="11" lengthAdjust="spacingAndGlyphs" textLength="154" x="506" y="193.4526">LongLifeUserToken : String</text><line style="stroke: #A80036; stroke-width: 1.0;" x1="487" x2="687" y1="200.0469" y2="200.0469"/><ellipse cx="497" cy="211.9492" fill="#84BE84" rx="3" ry="3" style="stroke: #038048; stroke-width: 1.0;"/><text fill="#000000" font-family="sans-serif" font-size="11" lengthAdjust="spacingAndGlyphs" textLength="172" x="506" y="214.2573">setShortLifeUserToken(String)</text><line style="stroke: #A80036; stroke-width: 1.0; stroke-dasharray: 1.0,2.0;" x1="487" x2="687" y1="220.8516" y2="220.8516"/><ellipse cx="497" cy="232.7539" fill="none" rx="3" ry="3" style="stroke: #038048; stroke-width: 1.0;"/><text fill="#000000" font-family="sans-serif" font-size="11" lengthAdjust="spacingAndGlyphs" textLength="176" x="506" y="235.062">getShortLifeUserToken : String</text><ellipse cx="497" cy="245.5586" fill="none" rx="3" ry="3" style="stroke: #038048; stroke-width: 1.0;"/><text fill="#000000" font-family="sans-serif" font-size="11" lengthAdjust="spacingAndGlyphs" textLength="172" x="506" y="247.8667">getLongLifeUserToken : String</text><!--class IInternalAPI--><rect fill="#FEFECE" filter="url(#f1a7ilecvczb2n)" height="196.8516" id="IInternalAPI" style="stroke: #A80036; stroke-width: 1.5;" width="240" x="22" y="93"/><ellipse cx="101.75" cy="109" fill="#B4A7E5" rx="11" ry="11" style="stroke: #A80036; stroke-width: 1.0;"/><path d="M97.6719,104.7656 L97.6719,102.6094 L105.0625,102.6094 L105.0625,104.7656 L102.5938,104.7656 L102.5938,112.8438 L105.0625,112.8438 L105.0625,115 L97.6719,115 L97.6719,112.8438 L100.1406,112.8438 L100.1406,104.7656 L97.6719,104.7656 Z "/><text fill="#000000" font-family="sans-serif" font-size="12" font-style="italic" lengthAdjust="spacingAndGlyphs" textLength="72" x="122.25" y="113.1543">IInternalAPI</text><line style="stroke: #A80036; stroke-width: 1.5;" x1="23" x2="261" y1="125" y2="125"/><line style="stroke: #A80036; stroke-width: 1.0;" x1="23" x2="261" y1="133" y2="133"/><ellipse cx="33" cy="144.9023" fill="#84BE84" rx="3" ry="3" style="stroke: #038048; stroke-width: 1.0;"/><text fill="#000000" font-family="sans-serif" font-size="11" lengthAdjust="spacingAndGlyphs" textLength="33" x="42" y="147.2104">auth()</text><rect fill="#F24D5C" height="6" style="stroke: #C82930; stroke-width: 1.0;" width="6" x="30" y="154.707"/><text fill="#000000" font-family="sans-serif" font-size="11" lengthAdjust="spacingAndGlyphs" textLength="214" x="42" y="160.0151">getLongLifeUserToken(String) : String</text><ellipse cx="33" cy="170.5117" fill="#84BE84" rx="3" ry="3" style="stroke: #038048; stroke-width: 1.0;"/><text fill="#000000" font-family="sans-serif" font-size="11" lengthAdjust="spacingAndGlyphs" textLength="142" x="42" y="172.8198">getPosts(Object) : Object</text><ellipse cx="33" cy="183.3164" fill="#84BE84" rx="3" ry="3" style="stroke: #038048; stroke-width: 1.0;"/><text fill="#000000" font-family="sans-serif" font-size="11" lengthAdjust="spacingAndGlyphs" textLength="172" x="42" y="185.6245">getComments(Object) : Object</text><ellipse cx="33" cy="196.1211" fill="#84BE84" rx="3" ry="3" style="stroke: #038048; stroke-width: 1.0;"/><text fill="#000000" font-family="sans-serif" font-size="11" lengthAdjust="spacingAndGlyphs" textLength="182" x="42" y="198.4292">getUserByName(String) : Object</text><line style="stroke: #A80036; stroke-width: 1.0; stroke-dasharray: 1.0,2.0;" x1="23" x2="261" y1="205.0234" y2="205.0234"/><ellipse cx="33" cy="216.9258" fill="#84BE84" rx="3" ry="3" style="stroke: #038048; stroke-width: 1.0;"/><text fill="#000000" font-family="sans-serif" font-size="11" lengthAdjust="spacingAndGlyphs" textLength="131" x="42" y="219.2339">answerFriendRequest()</text><ellipse cx="33" cy="229.7305" fill="#84BE84" rx="3" ry="3" style="stroke: #038048; stroke-width: 1.0;"/><text fill="#000000" font-family="sans-serif" font-size="11" lengthAdjust="spacingAndGlyphs" textLength="162" x="42" y="232.0386">setUserdata([String, String])</text><ellipse cx="33" cy="242.5352" fill="#84BE84" rx="3" ry="3" style="stroke: #038048; stroke-width: 1.0;"/><text fill="#000000" font-family="sans-serif" font-size="11" lengthAdjust="spacingAndGlyphs" textLength="95" x="42" y="244.8433">writePost(String)</text><ellipse cx="33" cy="255.3398" fill="#84BE84" rx="3" ry="3" style="stroke: #038048; stroke-width: 1.0;"/><text fill="#000000" font-family="sans-serif" font-size="11" lengthAdjust="spacingAndGlyphs" textLength="169" x="42" y="257.6479">writeComment(String, Object)</text><ellipse cx="33" cy="268.1445" fill="#84BE84" rx="3" ry="3" style="stroke: #038048; stroke-width: 1.0;"/><text fill="#000000" font-family="sans-serif" font-size="11" lengthAdjust="spacingAndGlyphs" textLength="101" x="42" y="270.4526">toggleLike(Object)</text><ellipse cx="33" cy="280.9492" fill="#84BE84" rx="3" ry="3" style="stroke: #038048; stroke-width: 1.0;"/><text fill="#000000" font-family="sans-serif" font-size="11" lengthAdjust="spacingAndGlyphs" textLength="204" x="42" y="283.2573">sendPrivateMessage(String, Object)</text><!--class InternalAPI--><rect fill="#FEFECE" filter="url(#f1a7ilecvczb2n)" height="184.0469" id="InternalAPI" style="stroke: #A80036; stroke-width: 1.5;" width="230" x="27" y="350"/><ellipse cx="104.25" cy="366" fill="#ADD1B2" rx="11" ry="11" style="stroke: #A80036; stroke-width: 1.0;"/><path d="M107.2188,371.6406 Q106.6406,371.9375 106,372.0859 Q105.3594,372.2344 104.6563,372.2344 Q102.1563,372.2344 100.8359,370.5859 Q99.5156,368.9375 99.5156,365.8125 Q99.5156,362.6875 100.8359,361.0313 Q102.1563,359.375 104.6563,359.375 Q105.3594,359.375 106.0078,359.5313 Q106.6563,359.6875 107.2188,359.9844 L107.2188,362.7031 Q106.5938,362.125 106,361.8516 Q105.4063,361.5781 104.7813,361.5781 Q103.4375,361.5781 102.75,362.6484 Q102.0625,363.7188 102.0625,365.8125 Q102.0625,367.9063 102.75,368.9766 Q103.4375,370.0469 104.7813,370.0469 Q105.4063,370.0469 106,369.7734 Q106.5938,369.5 107.2188,368.9219 L107.2188,371.6406 Z "/><text fill="#000000" font-family="sans-serif" font-size="12" lengthAdjust="spacingAndGlyphs" textLength="67" x="124.75" y="370.1543">InternalAPI</text><line style="stroke: #A80036; stroke-width: 1.5;" x1="28" x2="256" y1="382" y2="382"/><line style="stroke: #A80036; stroke-width: 1.0;" x1="28" x2="256" y1="390" y2="390"/><ellipse cx="38" cy="401.9023" fill="#84BE84" rx="3" ry="3" style="stroke: #038048; stroke-width: 1.0;"/><text fill="#000000" font-family="sans-serif" font-size="11" lengthAdjust="spacingAndGlyphs" textLength="33" x="47" y="404.2104">auth()</text><ellipse cx="38" cy="414.707" fill="#84BE84" rx="3" ry="3" style="stroke: #038048; stroke-width: 1.0;"/><text fill="#000000" font-family="sans-serif" font-size="11" lengthAdjust="spacingAndGlyphs" textLength="142" x="47" y="417.0151">getPosts(Object) : Object</text><ellipse cx="38" cy="427.5117" fill="#84BE84" rx="3" ry="3" style="stroke: #038048; stroke-width: 1.0;"/><text fill="#000000" font-family="sans-serif" font-size="11" lengthAdjust="spacingAndGlyphs" textLength="172" x="47" y="429.8198">getComments(Object) : Object</text><ellipse cx="38" cy="440.3164" fill="#84BE84" rx="3" ry="3" style="stroke: #038048; stroke-width: 1.0;"/><text fill="#000000" font-family="sans-serif" font-size="11" lengthAdjust="spacingAndGlyphs" textLength="182" x="47" y="442.6245">getUserByName(String) : Object</text><line style="stroke: #A80036; stroke-width: 1.0; stroke-dasharray: 1.0,2.0;" x1="28" x2="256" y1="449.2188" y2="449.2188"/><ellipse cx="38" cy="461.1211" fill="#84BE84" rx="3" ry="3" style="stroke: #038048; stroke-width: 1.0;"/><text fill="#000000" font-family="sans-serif" font-size="11" lengthAdjust="spacingAndGlyphs" textLength="131" x="47" y="463.4292">answerFriendRequest()</text><ellipse cx="38" cy="473.9258" fill="#84BE84" rx="3" ry="3" style="stroke: #038048; stroke-width: 1.0;"/><text fill="#000000" font-family="sans-serif" font-size="11" lengthAdjust="spacingAndGlyphs" textLength="162" x="47" y="476.2339">setUserdata([String, String])</text><ellipse cx="38" cy="486.7305" fill="#84BE84" rx="3" ry="3" style="stroke: #038048; stroke-width: 1.0;"/><text fill="#000000" font-family="sans-serif" font-size="11" lengthAdjust="spacingAndGlyphs" textLength="95" x="47" y="489.0386">writePost(String)</text><ellipse cx="38" cy="499.5352" fill="#84BE84" rx="3" ry="3" style="stroke: #038048; stroke-width: 1.0;"/><text fill="#000000" font-family="sans-serif" font-size="11" lengthAdjust="spacingAndGlyphs" textLength="169" x="47" y="501.8433">writeComment(String, Object)</text><ellipse cx="38" cy="512.3398" fill="#84BE84" rx="3" ry="3" style="stroke: #038048; stroke-width: 1.0;"/><text fill="#000000" font-family="sans-serif" font-size="11" lengthAdjust="spacingAndGlyphs" textLength="101" x="47" y="514.6479">toggleLike(Object)</text><ellipse cx="38" cy="525.1445" fill="#84BE84" rx="3" ry="3" style="stroke: #038048; stroke-width: 1.0;"/><text fill="#000000" font-family="sans-serif" font-size="11" lengthAdjust="spacingAndGlyphs" textLength="204" x="47" y="527.4526">sendPrivateMessage(String, Object)</text><!--class ILogger--><rect fill="#FEFECE" filter="url(#f1a7ilecvczb2n)" height="86.4141" id="ILogger" style="stroke: #A80036; stroke-width: 1.5;" width="153" x="297.5" y="148.5"/><ellipse cx="345.75" cy="164.5" fill="#B4A7E5" rx="11" ry="11" style="stroke: #A80036; stroke-width: 1.0;"/><path d="M341.6719,160.2656 L341.6719,158.1094 L349.0625,158.1094 L349.0625,160.2656 L346.5938,160.2656 L346.5938,168.3438 L349.0625,168.3438 L349.0625,170.5 L341.6719,170.5 L341.6719,168.3438 L344.1406,168.3438 L344.1406,160.2656 L341.6719,160.2656 Z "/><text fill="#000000" font-family="sans-serif" font-size="12" font-style="italic" lengthAdjust="spacingAndGlyphs" textLength="48" x="366.25" y="168.6543">ILogger</text><line style="stroke: #A80036; stroke-width: 1.5;" x1="298.5" x2="449.5" y1="180.5" y2="180.5"/><line style="stroke: #A80036; stroke-width: 1.0;" x1="298.5" x2="449.5" y1="188.5" y2="188.5"/><ellipse cx="308.5" cy="200.4023" fill="#84BE84" rx="3" ry="3" style="stroke: #038048; stroke-width: 1.0;"/><text fill="#000000" font-family="sans-serif" font-size="11" lengthAdjust="spacingAndGlyphs" textLength="107" x="317.5" y="202.7104">logAddPost(Object)</text><ellipse cx="308.5" cy="213.207" fill="#84BE84" rx="3" ry="3" style="stroke: #038048; stroke-width: 1.0;"/><text fill="#000000" font-family="sans-serif" font-size="11" lengthAdjust="spacingAndGlyphs" textLength="104" x="317.5" y="215.5151">logAddLike(Object)</text><ellipse cx="308.5" cy="226.0117" fill="#84BE84" rx="3" ry="3" style="stroke: #038048; stroke-width: 1.0;"/><text fill="#000000" font-family="sans-serif" font-size="11" lengthAdjust="spacingAndGlyphs" textLength="127" x="317.5" y="228.3198">logAddFriendRequest()</text><!--class Logger--><rect fill="#FEFECE" filter="url(#f1a7ilecvczb2n)" height="86.4141" id="Logger" style="stroke: #A80036; stroke-width: 1.5;" width="153" x="534.5" y="399"/><ellipse cx="585.25" cy="415" fill="#ADD1B2" rx="11" ry="11" style="stroke: #A80036; stroke-width: 1.0;"/><path d="M588.2188,420.6406 Q587.6406,420.9375 587,421.0859 Q586.3594,421.2344 585.6563,421.2344 Q583.1563,421.2344 581.8359,419.5859 Q580.5156,417.9375 580.5156,414.8125 Q580.5156,411.6875 581.8359,410.0313 Q583.1563,408.375 585.6563,408.375 Q586.3594,408.375 587.0078,408.5313 Q587.6563,408.6875 588.2188,408.9844 L588.2188,411.7031 Q587.5938,411.125 587,410.8516 Q586.4063,410.5781 585.7813,410.5781 Q584.4375,410.5781 583.75,411.6484 Q583.0625,412.7188 583.0625,414.8125 Q583.0625,416.9063 583.75,417.9766 Q584.4375,419.0469 585.7813,419.0469 Q586.4063,419.0469 587,418.7734 Q587.5938,418.5 588.2188,417.9219 L588.2188,420.6406 Z "/><text fill="#000000" font-family="sans-serif" font-size="12" lengthAdjust="spacingAndGlyphs" textLength="43" x="605.75" y="419.1543">Logger</text><line style="stroke: #A80036; stroke-width: 1.5;" x1="535.5" x2="686.5" y1="431" y2="431"/><line style="stroke: #A80036; stroke-width: 1.0;" x1="535.5" x2="686.5" y1="439" y2="439"/><ellipse cx="545.5" cy="450.9023" fill="#84BE84" rx="3" ry="3" style="stroke: #038048; stroke-width: 1.0;"/><text fill="#000000" font-family="sans-serif" font-size="11" lengthAdjust="spacingAndGlyphs" textLength="107" x="554.5" y="453.2104">logAddPost(Object)</text><ellipse cx="545.5" cy="463.707" fill="#84BE84" rx="3" ry="3" style="stroke: #038048; stroke-width: 1.0;"/><text fill="#000000" font-family="sans-serif" font-size="11" lengthAdjust="spacingAndGlyphs" textLength="104" x="554.5" y="466.0151">logAddLike(Object)</text><ellipse cx="545.5" cy="476.5117" fill="#84BE84" rx="3" ry="3" style="stroke: #038048; stroke-width: 1.0;"/><text fill="#000000" font-family="sans-serif" font-size="11" lengthAdjust="spacingAndGlyphs" textLength="127" x="554.5" y="478.8198">logAddFriendRequest()</text><!--class IFileAccess--><rect fill="#FEFECE" filter="url(#f1a7ilecvczb2n)" height="60.8047" id="IFileAccess" style="stroke: #A80036; stroke-width: 1.5;" width="129" x="550.5" y="594"/><ellipse cx="579" cy="610" fill="#B4A7E5" rx="11" ry="11" style="stroke: #A80036; stroke-width: 1.0;"/><path d="M574.9219,605.7656 L574.9219,603.6094 L582.3125,603.6094 L582.3125,605.7656 L579.8438,605.7656 L579.8438,613.8438 L582.3125,613.8438 L582.3125,616 L574.9219,616 L574.9219,613.8438 L577.3906,613.8438 L577.3906,605.7656 L574.9219,605.7656 Z "/><text fill="#000000" font-family="sans-serif" font-size="12" font-style="italic" lengthAdjust="spacingAndGlyphs" textLength="67" x="596" y="614.1543">IFileAccess</text><line style="stroke: #A80036; stroke-width: 1.5;" x1="551.5" x2="678.5" y1="626" y2="626"/><line style="stroke: #A80036; stroke-width: 1.0;" x1="551.5" x2="678.5" y1="634" y2="634"/><ellipse cx="561.5" cy="645.9023" fill="#84BE84" rx="3" ry="3" style="stroke: #038048; stroke-width: 1.0;"/><text fill="#000000" font-family="sans-serif" font-size="11" lengthAdjust="spacingAndGlyphs" textLength="103" x="570.5" y="648.2104">fileAddLine(String)</text><!--class FileAccess--><rect fill="#FEFECE" filter="url(#f1a7ilecvczb2n)" height="60.8047" id="FileAccess" style="stroke: #A80036; stroke-width: 1.5;" width="129" x="550.5" y="715"/><ellipse cx="579.9" cy="731" fill="#ADD1B2" rx="11" ry="11" style="stroke: #A80036; stroke-width: 1.0;"/><path d="M582.8688,736.6406 Q582.2906,736.9375 581.65,737.0859 Q581.0094,737.2344 580.3063,737.2344 Q577.8063,737.2344 576.4859,735.5859 Q575.1656,733.9375 575.1656,730.8125 Q575.1656,727.6875 576.4859,726.0313 Q577.8063,724.375 580.3063,724.375 Q581.0094,724.375 581.6578,724.5313 Q582.3063,724.6875 582.8688,724.9844 L582.8688,727.7031 Q582.2438,727.125 581.65,726.8516 Q581.0563,726.5781 580.4313,726.5781 Q579.0875,726.5781 578.4,727.6484 Q577.7125,728.7188 577.7125,730.8125 Q577.7125,732.9063 578.4,733.9766 Q579.0875,735.0469 580.4313,735.0469 Q581.0563,735.0469 581.65,734.7734 Q582.2438,734.5 582.8688,733.9219 L582.8688,736.6406 Z "/><text fill="#000000" font-family="sans-serif" font-size="12" lengthAdjust="spacingAndGlyphs" textLength="65" x="597.1" y="735.1543">FileAccess</text><line style="stroke: #A80036; stroke-width: 1.5;" x1="551.5" x2="678.5" y1="747" y2="747"/><line style="stroke: #A80036; stroke-width: 1.0;" x1="551.5" x2="678.5" y1="755" y2="755"/><ellipse cx="561.5" cy="766.9023" fill="#84BE84" rx="3" ry="3" style="stroke: #038048; stroke-width: 1.0;"/><text fill="#000000" font-family="sans-serif" font-size="11" lengthAdjust="spacingAndGlyphs" textLength="103" x="570.5" y="769.2104">fileAddLine(String)</text><path d="M679.5,8 L679.5,33.1328 L802.5,33.1328 L802.5,18 L792.5,8 L679.5,8 " fill="#FBFB77" filter="url(#f1a7ilecvczb2n)" style="stroke: #A80036; stroke-width: 1.0;"/><path d="M792.5,8 L792.5,18 L802.5,18 L792.5,8 " fill="#FBFB77" style="stroke: #A80036; stroke-width: 1.0;"/><text fill="#000000" font-family="sans-serif" font-size="13" lengthAdjust="spacingAndGlyphs" textLength="102" x="685.5" y="25.0669">To be expanded</text><!--link IInternalAPI to InternalAPI--><path d="M142,310.2475 C142,323.5954 142,337.0421 142,349.979 " fill="none" id="IInternalAPI-InternalAPI" style="stroke: #A80036; stroke-width: 1.0; stroke-dasharray: 7.0,7.0;"/><polygon fill="none" points="135.0001,310.1447,142,290.1446,149.0001,310.1446,135.0001,310.1447" style="stroke: #A80036; stroke-width: 1.0;"/><!--link ILogger to Logger--><path d="M428.6874,249.3025 C471.7762,294.8457 530.906,357.3437 569.9968,398.6611 " fill="none" id="ILogger-Logger" style="stroke: #A80036; stroke-width: 1.0; stroke-dasharray: 7.0,7.0;"/><polygon fill="none" points="423.4021,253.9016,414.7418,234.5625,433.5719,244.2799,423.4021,253.9016" style="stroke: #A80036; stroke-width: 1.0;"/><!--link IFileAccess to FileAccess--><path d="M615,675.2927 C615,688.7857 615,702.9401 615,714.9764 " fill="none" id="IFileAccess-FileAccess" style="stroke: #A80036; stroke-width: 1.0; stroke-dasharray: 7.0,7.0;"/><polygon fill="none" points="608.0001,675.0334,615,655.0334,622.0001,675.0334,608.0001,675.0334" style="stroke: #A80036; stroke-width: 1.0;"/><!--link Logger to IFileAccess--><path d="M611.9479,485.25 C612.6803,518.6636 613.6758,564.0812 614.3278,593.8298 " fill="none" id="Logger-IFileAccess" style="stroke: #A80036; stroke-width: 1.0;"/><!--link TODO to ILogger--><path d="M679.4872,25.4924 C610.4287,32.0095 503.5084,45.1126 469,66 C436.8556,85.4565 411.8351,120.2175 395.5591,148.2297 " fill="none" id="TODO-ILogger" style="stroke: #A80036; stroke-width: 1.0; stroke-dasharray: 7.0,7.0;"/><!--link TODO to Logger--><path d="M741.2396,33.0236 C741.6032,72.2286 739.8012,195.6098 706,290 C691.8367,329.5512 666.1925,369.6582 645.115,398.7359 " fill="none" id="TODO-Logger" style="stroke: #A80036; stroke-width: 1.0; stroke-dasharray: 7.0,7.0;"/><!--link TODO to IFileAccess--><path d="M743.7281,33.2945 C756.0905,94.5609 802.1264,362.3787 704,542 C693.0911,561.9688 675.5465,579.7721 658.9067,593.6831 " fill="none" id="TODO-IFileAccess" style="stroke: #A80036; stroke-width: 1.0; stroke-dasharray: 7.0,7.0;"/><!--
@startuml
package BusinessLayer <<Folder>> {
  class Singleton << (S,#FF7700) Singleton >> {
    - ShortLifeUserToken : String
    - LongLifeUserToken : String
    - -
    + setShortLifeUserToken(String)
    ..
    + getShortLifeUserToken : String
    + getLongLifeUserToken : String
  }

  interface IInternalAPI {
    - -
    + auth()
    - getLongLifeUserToken(String) : String
    + getPosts(Object) : Object
    + getComments(Object) : Object
    + getUserByName(String) : Object
    ..
    + answerFriendRequest()
    + setUserdata([String, String])
    + writePost(String)
    + writeComment(String, Object)
    + toggleLike(Object)
    + sendPrivateMessage(String, Object)
  }

  class InternalAPI {
    - -
    + auth()
    + getPosts(Object) : Object
    + getComments(Object) : Object
    + getUserByName(String) : Object
    ..
    + answerFriendRequest()
    + setUserdata([String, String])
    + writePost(String)
    + writeComment(String, Object)
    + toggleLike(Object)
    + sendPrivateMessage(String, Object)
  }

  interface ILogger {
    - -
    + logAddPost(Object)
    + logAddLike(Object)
    + logAddFriendRequest()
  }

  class Logger {
    - -
    + logAddPost(Object)
    + logAddLike(Object)
    + logAddFriendRequest()
  }
}
package DataAccessLayer <<Folder>> {
  interface IFileAccess {
    - -
    + fileAddLine(String)
  }

  class FileAccess {
    - -
    + fileAddLine(String)
  }
}

IInternalAPI <|.. InternalAPI
ILogger <|.. Logger
IFileAccess <|.. FileAccess

Logger - - IFileAccess

note "To be expanded" as TODO

TODO .. ILogger
TODO .. Logger
TODO .. IFileAccess

@enduml

PlantUML version 1.2018.03(Thu Apr 05 18:59:15 CEST 2018)
(GPL source distribution)
Java Runtime: OpenJDK Runtime Environment
JVM: OpenJDK 64-Bit Server VM
Java Version: 1.8.0_162-b12
Operating System: Linux
OS Version: 4.15.15-1-ARCH
Default Encoding: UTF-8
Language: en
Country: US
--></g></svg>