<?xml version="1.0" encoding="UTF-8" standalone="no"?><svg xmlns="http://www.w3.org/2000/svg" xmlns:xlink="http://www.w3.org/1999/xlink" contentScriptType="application/ecmascript" contentStyleType="text/css" height="460px" preserveAspectRatio="none" style="width:494px;height:460px;" version="1.1" viewBox="0 0 494 460"
    width="494px" zoomAndPan="magnify"><defs><filter height="300%" id="f1rgngriayqa69" width="300%" x="-1" y="-1"><feGaussianBlur result="blurOut" stdDeviation="2.0"/><feColorMatrix in="blurOut" result="blurOut2" type="matrix" values="0 0 0 0 0 0 0 0 0 0 0 0 0 0 0 0 0 0 .4 0"/><feOffset dx="4.0" dy="4.0" in="blurOut2" result="blurOut3"/><feBlend in="SourceGraphic" in2="blurOut3" mode="normal"/></filter></defs><g><!--class Singleton--><rect fill="#FEFECE" filter="url(#f1rgngriayqa69)" height="125.9609" id="Singleton" style="stroke: #A80036; stroke-width: 1.5;" width="202" x="6" y="43.5"/><ellipse cx="68.25" cy="62.4688" fill="#FF7700" rx="11" ry="11" style="stroke: #A80036; stroke-width: 1.0;"/><path d="M67.7344,63.0313 Q65.875,62.3281 65.2266,61.5547 Q64.5781,60.7813 64.5781,59.4688 Q64.5781,57.7813 65.6563,56.8125 Q66.7344,55.8438 68.6094,55.8438 Q69.4688,55.8438 70.3203,56.0391 Q71.1719,56.2344 72.0156,56.625 L72.0156,59.0156 Q71.2344,58.4531 70.4141,58.1641 Q69.5938,57.875 68.7969,57.875 Q67.9219,57.875 67.4453,58.2344 Q66.9688,58.5938 66.9688,59.25 Q66.9688,59.7656 67.3125,60.1016 Q67.6563,60.4375 68.75,60.8438 L69.8125,61.25 Q71.2969,61.7969 72.0078,62.7031 Q72.7188,63.6094 72.7188,64.9844 Q72.7188,66.8594 71.6094,67.7813 Q70.5,68.7031 68.25,68.7031 Q67.3281,68.7031 66.4063,68.4844 Q65.4844,68.2656 64.625,67.8438 L64.625,65.3125 Q65.5938,66 66.5156,66.3438 Q67.4375,66.6875 68.3281,66.6875 Q69.2344,66.6875 69.7344,66.2734 Q70.2344,65.8594 70.2344,65.125 Q70.2344,64.5625 69.8984,64.1484 Q69.5625,63.7344 68.9375,63.4844 L67.7344,63.0313 Z "/><text fill="#000000" font-family="sans-serif" font-size="12" font-style="italic" lengthAdjust="spacingAndGlyphs" textLength="73" x="86.75" y="59.6387">«Singleton»</text><text fill="#000000" font-family="sans-serif" font-size="12" lengthAdjust="spacingAndGlyphs" textLength="59" x="93.75" y="73.6074">Singleton</text><line style="stroke: #A80036; stroke-width: 1.5;" x1="7" x2="207" y1="81.4375" y2="81.4375"/><rect fill="none" height="6" style="stroke: #C82930; stroke-width: 1.0;" width="6" x="14" y="90.3398"/><text fill="#000000" font-family="sans-serif" font-size="11" lengthAdjust="spacingAndGlyphs" textLength="158" x="26" y="95.6479">ShortLifeUserToken : String</text><rect fill="none" height="6" style="stroke: #C82930; stroke-width: 1.0;" width="6" x="14" y="103.1445"/><text fill="#000000" font-family="sans-serif" font-size="11" lengthAdjust="spacingAndGlyphs" textLength="154" x="26" y="108.4526">LongLifeUserToken : String</text><line style="stroke: #A80036; stroke-width: 1.0;" x1="7" x2="207" y1="115.0469" y2="115.0469"/><ellipse cx="17" cy="126.9492" fill="#84BE84" rx="3" ry="3" style="stroke: #038048; stroke-width: 1.0;"/><text fill="#000000" font-family="sans-serif" font-size="11" lengthAdjust="spacingAndGlyphs" textLength="172" x="26" y="129.2573">setShortLifeUserToken(String)</text><line style="stroke: #A80036; stroke-width: 1.0; stroke-dasharray: 1.0,2.0;" x1="7" x2="207" y1="135.8516" y2="135.8516"/><ellipse cx="17" cy="147.7539" fill="none" rx="3" ry="3" style="stroke: #038048; stroke-width: 1.0;"/><text fill="#000000" font-family="sans-serif" font-size="11" lengthAdjust="spacingAndGlyphs" textLength="176" x="26" y="150.062">getShortLifeUserToken : String</text><ellipse cx="17" cy="160.5586" fill="none" rx="3" ry="3" style="stroke: #038048; stroke-width: 1.0;"/><text fill="#000000" font-family="sans-serif" font-size="11" lengthAdjust="spacingAndGlyphs" textLength="172" x="26" y="162.8667">getLongLifeUserToken : String</text><!--class IInternalAPI--><rect fill="#FEFECE" filter="url(#f1rgngriayqa69)" height="196.8516" id="IInternalAPI" style="stroke: #A80036; stroke-width: 1.5;" width="240" x="243" y="8"/><ellipse cx="322.75" cy="24" fill="#B4A7E5" rx="11" ry="11" style="stroke: #A80036; stroke-width: 1.0;"/><path d="M318.6719,19.7656 L318.6719,17.6094 L326.0625,17.6094 L326.0625,19.7656 L323.5938,19.7656 L323.5938,27.8438 L326.0625,27.8438 L326.0625,30 L318.6719,30 L318.6719,27.8438 L321.1406,27.8438 L321.1406,19.7656 L318.6719,19.7656 Z "/><text fill="#000000" font-family="sans-serif" font-size="12" font-style="italic" lengthAdjust="spacingAndGlyphs" textLength="72" x="343.25" y="28.1543">IInternalAPI</text><line style="stroke: #A80036; stroke-width: 1.5;" x1="244" x2="482" y1="40" y2="40"/><line style="stroke: #A80036; stroke-width: 1.0;" x1="244" x2="482" y1="48" y2="48"/><ellipse cx="254" cy="59.9023" fill="#84BE84" rx="3" ry="3" style="stroke: #038048; stroke-width: 1.0;"/><text fill="#000000" font-family="sans-serif" font-size="11" lengthAdjust="spacingAndGlyphs" textLength="33" x="263" y="62.2104">auth()</text><rect fill="#F24D5C" height="6" style="stroke: #C82930; stroke-width: 1.0;" width="6" x="251" y="69.707"/><text fill="#000000" font-family="sans-serif" font-size="11" lengthAdjust="spacingAndGlyphs" textLength="214" x="263" y="75.0151">getLongLifeUserToken(String) : String</text><ellipse cx="254" cy="85.5117" fill="#84BE84" rx="3" ry="3" style="stroke: #038048; stroke-width: 1.0;"/><text fill="#000000" font-family="sans-serif" font-size="11" lengthAdjust="spacingAndGlyphs" textLength="142" x="263" y="87.8198">getPosts(Object) : Object</text><ellipse cx="254" cy="98.3164" fill="#84BE84" rx="3" ry="3" style="stroke: #038048; stroke-width: 1.0;"/><text fill="#000000" font-family="sans-serif" font-size="11" lengthAdjust="spacingAndGlyphs" textLength="172" x="263" y="100.6245">getComments(Object) : Object</text><ellipse cx="254" cy="111.1211" fill="#84BE84" rx="3" ry="3" style="stroke: #038048; stroke-width: 1.0;"/><text fill="#000000" font-family="sans-serif" font-size="11" lengthAdjust="spacingAndGlyphs" textLength="182" x="263" y="113.4292">getUserByName(String) : Object</text><line style="stroke: #A80036; stroke-width: 1.0; stroke-dasharray: 1.0,2.0;" x1="244" x2="482" y1="120.0234" y2="120.0234"/><ellipse cx="254" cy="131.9258" fill="#84BE84" rx="3" ry="3" style="stroke: #038048; stroke-width: 1.0;"/><text fill="#000000" font-family="sans-serif" font-size="11" lengthAdjust="spacingAndGlyphs" textLength="131" x="263" y="134.2339">answerFriendRequest()</text><ellipse cx="254" cy="144.7305" fill="#84BE84" rx="3" ry="3" style="stroke: #038048; stroke-width: 1.0;"/><text fill="#000000" font-family="sans-serif" font-size="11" lengthAdjust="spacingAndGlyphs" textLength="162" x="263" y="147.0386">setUserdata([String, String])</text><ellipse cx="254" cy="157.5352" fill="#84BE84" rx="3" ry="3" style="stroke: #038048; stroke-width: 1.0;"/><text fill="#000000" font-family="sans-serif" font-size="11" lengthAdjust="spacingAndGlyphs" textLength="95" x="263" y="159.8433">writePost(String)</text><ellipse cx="254" cy="170.3398" fill="#84BE84" rx="3" ry="3" style="stroke: #038048; stroke-width: 1.0;"/><text fill="#000000" font-family="sans-serif" font-size="11" lengthAdjust="spacingAndGlyphs" textLength="169" x="263" y="172.6479">writeComment(String, Object)</text><ellipse cx="254" cy="183.1445" fill="#84BE84" rx="3" ry="3" style="stroke: #038048; stroke-width: 1.0;"/><text fill="#000000" font-family="sans-serif" font-size="11" lengthAdjust="spacingAndGlyphs" textLength="101" x="263" y="185.4526">toggleLike(Object)</text><ellipse cx="254" cy="195.9492" fill="#84BE84" rx="3" ry="3" style="stroke: #038048; stroke-width: 1.0;"/><text fill="#000000" font-family="sans-serif" font-size="11" lengthAdjust="spacingAndGlyphs" textLength="204" x="263" y="198.2573">sendPrivateMessage(String, Object)</text><!--class InternalAPI--><rect fill="#FEFECE" filter="url(#f1rgngriayqa69)" height="184.0469" id="InternalAPI" style="stroke: #A80036; stroke-width: 1.5;" width="230" x="248" y="265"/><ellipse cx="325.25" cy="281" fill="#ADD1B2" rx="11" ry="11" style="stroke: #A80036; stroke-width: 1.0;"/><path d="M328.2188,286.6406 Q327.6406,286.9375 327,287.0859 Q326.3594,287.2344 325.6563,287.2344 Q323.1563,287.2344 321.8359,285.5859 Q320.5156,283.9375 320.5156,280.8125 Q320.5156,277.6875 321.8359,276.0313 Q323.1563,274.375 325.6563,274.375 Q326.3594,274.375 327.0078,274.5313 Q327.6563,274.6875 328.2188,274.9844 L328.2188,277.7031 Q327.5938,277.125 327,276.8516 Q326.4063,276.5781 325.7813,276.5781 Q324.4375,276.5781 323.75,277.6484 Q323.0625,278.7188 323.0625,280.8125 Q323.0625,282.9063 323.75,283.9766 Q324.4375,285.0469 325.7813,285.0469 Q326.4063,285.0469 327,284.7734 Q327.5938,284.5 328.2188,283.9219 L328.2188,286.6406 Z "/><text fill="#000000" font-family="sans-serif" font-size="12" lengthAdjust="spacingAndGlyphs" textLength="67" x="345.75" y="285.1543">InternalAPI</text><line style="stroke: #A80036; stroke-width: 1.5;" x1="249" x2="477" y1="297" y2="297"/><line style="stroke: #A80036; stroke-width: 1.0;" x1="249" x2="477" y1="305" y2="305"/><ellipse cx="259" cy="316.9023" fill="#84BE84" rx="3" ry="3" style="stroke: #038048; stroke-width: 1.0;"/><text fill="#000000" font-family="sans-serif" font-size="11" lengthAdjust="spacingAndGlyphs" textLength="33" x="268" y="319.2104">auth()</text><ellipse cx="259" cy="329.707" fill="#84BE84" rx="3" ry="3" style="stroke: #038048; stroke-width: 1.0;"/><text fill="#000000" font-family="sans-serif" font-size="11" lengthAdjust="spacingAndGlyphs" textLength="142" x="268" y="332.0151">getPosts(Object) : Object</text><ellipse cx="259" cy="342.5117" fill="#84BE84" rx="3" ry="3" style="stroke: #038048; stroke-width: 1.0;"/><text fill="#000000" font-family="sans-serif" font-size="11" lengthAdjust="spacingAndGlyphs" textLength="172" x="268" y="344.8198">getComments(Object) : Object</text><ellipse cx="259" cy="355.3164" fill="#84BE84" rx="3" ry="3" style="stroke: #038048; stroke-width: 1.0;"/><text fill="#000000" font-family="sans-serif" font-size="11" lengthAdjust="spacingAndGlyphs" textLength="182" x="268" y="357.6245">getUserByName(String) : Object</text><line style="stroke: #A80036; stroke-width: 1.0; stroke-dasharray: 1.0,2.0;" x1="249" x2="477" y1="364.2188" y2="364.2188"/><ellipse cx="259" cy="376.1211" fill="#84BE84" rx="3" ry="3" style="stroke: #038048; stroke-width: 1.0;"/><text fill="#000000" font-family="sans-serif" font-size="11" lengthAdjust="spacingAndGlyphs" textLength="131" x="268" y="378.4292">answerFriendRequest()</text><ellipse cx="259" cy="388.9258" fill="#84BE84" rx="3" ry="3" style="stroke: #038048; stroke-width: 1.0;"/><text fill="#000000" font-family="sans-serif" font-size="11" lengthAdjust="spacingAndGlyphs" textLength="162" x="268" y="391.2339">setUserdata([String, String])</text><ellipse cx="259" cy="401.7305" fill="#84BE84" rx="3" ry="3" style="stroke: #038048; stroke-width: 1.0;"/><text fill="#000000" font-family="sans-serif" font-size="11" lengthAdjust="spacingAndGlyphs" textLength="95" x="268" y="404.0386">writePost(String)</text><ellipse cx="259" cy="414.5352" fill="#84BE84" rx="3" ry="3" style="stroke: #038048; stroke-width: 1.0;"/><text fill="#000000" font-family="sans-serif" font-size="11" lengthAdjust="spacingAndGlyphs" textLength="169" x="268" y="416.8433">writeComment(String, Object)</text><ellipse cx="259" cy="427.3398" fill="#84BE84" rx="3" ry="3" style="stroke: #038048; stroke-width: 1.0;"/><text fill="#000000" font-family="sans-serif" font-size="11" lengthAdjust="spacingAndGlyphs" textLength="101" x="268" y="429.6479">toggleLike(Object)</text><ellipse cx="259" cy="440.1445" fill="#84BE84" rx="3" ry="3" style="stroke: #038048; stroke-width: 1.0;"/><text fill="#000000" font-family="sans-serif" font-size="11" lengthAdjust="spacingAndGlyphs" textLength="204" x="268" y="442.4526">sendPrivateMessage(String, Object)</text><!--link IInternalAPI to InternalAPI--><path d="M363,225.2475 C363,238.5954 363,252.0421 363,264.979 " fill="none" id="IInternalAPI-InternalAPI" style="stroke: #A80036; stroke-width: 1.0;"/><polygon fill="none" points="356.0001,225.1447,363,205.1446,370.0001,225.1446,356.0001,225.1447" style="stroke: #A80036; stroke-width: 1.0;"/><!--
@startuml
class Singleton << (S,#FF7700) Singleton >> {
  - ShortLifeUserToken : String
  - LongLifeUserToken : String
  - -
  + setShortLifeUserToken(String)
  ..
  + getShortLifeUserToken : String
  + getLongLifeUserToken : String
}

interface IInternalAPI {
  - -
  + auth()
  - getLongLifeUserToken(String) : String
  + getPosts(Object) : Object
  + getComments(Object) : Object
  + getUserByName(String) : Object
  ..
  + answerFriendRequest()
  + setUserdata([String, String])
  + writePost(String)
  + writeComment(String, Object)
  + toggleLike(Object)
  + sendPrivateMessage(String, Object)
}

class InternalAPI {
  - -
  + auth()
  + getPosts(Object) : Object
  + getComments(Object) : Object
  + getUserByName(String) : Object
  ..
  + answerFriendRequest()
  + setUserdata([String, String])
  + writePost(String)
  + writeComment(String, Object)
  + toggleLike(Object)
  + sendPrivateMessage(String, Object)
}

IInternalAPI <|- - InternalAPI
@enduml

PlantUML version 1.2018.03(Thu Apr 05 18:59:15 CEST 2018)
(GPL source distribution)
Java Runtime: OpenJDK Runtime Environment
JVM: OpenJDK 64-Bit Server VM
Java Version: 1.8.0_162-b12
Operating System: Linux
OS Version: 4.15.15-1-ARCH
Default Encoding: UTF-8
Language: en
Country: US
--></g></svg>