<?xml version="1.0" encoding="UTF-8" standalone="no"?><svg xmlns="http://www.w3.org/2000/svg" xmlns:xlink="http://www.w3.org/1999/xlink" contentScriptType="application/ecmascript" contentStyleType="text/css" height="124px" preserveAspectRatio="none" style="width:562px;height:124px;" version="1.1" viewBox="0 0 562 124"
    width="562px" zoomAndPan="magnify"><defs><filter height="300%" id="fji3r7job4gwv" width="300%" x="-1" y="-1"><feGaussianBlur result="blurOut" stdDeviation="2.0"/><feColorMatrix in="blurOut" result="blurOut2" type="matrix" values="0 0 0 0 0 0 0 0 0 0 0 0 0 0 0 0 0 0 .4 0"/><feOffset dx="4.0" dy="4.0" in="blurOut2" result="blurOut3"/><feBlend in="SourceGraphic" in2="blurOut3" mode="normal"/></filter></defs><g><!--cluster DataAccessLayer--><polygon fill="#FFFFFF" filter="url(#fji3r7job4gwv)" points="352,16,494,16,501,38.2969,540,38.2969,540,112,352,112,352,16" style="stroke: #000000; stroke-width: 1.5;"/><line style="stroke: #000000; stroke-width: 1.5;" x1="352" x2="501" y1="38.2969" y2="38.2969"/><text fill="#000000" font-family="sans-serif" font-size="14" font-weight="bold" lengthAdjust="spacingAndGlyphs" textLength="136" x="356" y="30.9951">DataAccessLayer</text><!--entity PresentationLayer--><polygon fill="#FFFFFF" filter="url(#fji3r7job4gwv)" points="6,54,136,54,143,76.2969,160,76.2969,160,93.2969,6,93.2969,6,54" style="stroke: #000000; stroke-width: 1.5;"/><line style="stroke: #000000; stroke-width: 1.5;" x1="6" x2="143" y1="76.2969" y2="76.2969"/><text fill="#000000" font-family="sans-serif" font-size="14" lengthAdjust="spacingAndGlyphs" textLength="124" x="10" y="69.9951">PresentationLayer</text><!--entity BusinessLayer--><polygon fill="#FFFFFF" filter="url(#fji3r7job4gwv)" points="195,54,301,54,308,76.2969,325,76.2969,325,93.2969,195,93.2969,195,54" style="stroke: #000000; stroke-width: 1.5;"/><line style="stroke: #000000; stroke-width: 1.5;" x1="195" x2="308" y1="76.2969" y2="76.2969"/><text fill="#000000" font-family="sans-serif" font-size="14" lengthAdjust="spacingAndGlyphs" textLength="100" x="199" y="69.9951">BusinessLayer</text><!--class InternalAPI--><rect fill="#FEFECE" filter="url(#fji3r7job4gwv)" height="60.8047" id="InternalAPI" style="stroke: #A80036; stroke-width: 1.5;" width="171" x="360.5" y="43"/><ellipse cx="408.25" cy="59" fill="#ADD1B2" rx="11" ry="11" style="stroke: #A80036; stroke-width: 1.0;"/><path d="M411.2188,64.6406 Q410.6406,64.9375 410,65.0859 Q409.3594,65.2344 408.6563,65.2344 Q406.1563,65.2344 404.8359,63.5859 Q403.5156,61.9375 403.5156,58.8125 Q403.5156,55.6875 404.8359,54.0313 Q406.1563,52.375 408.6563,52.375 Q409.3594,52.375 410.0078,52.5313 Q410.6563,52.6875 411.2188,52.9844 L411.2188,55.7031 Q410.5938,55.125 410,54.8516 Q409.4063,54.5781 408.7813,54.5781 Q407.4375,54.5781 406.75,55.6484 Q406.0625,56.7188 406.0625,58.8125 Q406.0625,60.9063 406.75,61.9766 Q407.4375,63.0469 408.7813,63.0469 Q409.4063,63.0469 410,62.7734 Q410.5938,62.5 411.2188,61.9219 L411.2188,64.6406 Z "/><text fill="#000000" font-family="sans-serif" font-size="12" lengthAdjust="spacingAndGlyphs" textLength="67" x="428.75" y="63.1543">InternalAPI</text><line style="stroke: #A80036; stroke-width: 1.5;" x1="361.5" x2="530.5" y1="75" y2="75"/><line style="stroke: #A80036; stroke-width: 1.0;" x1="361.5" x2="530.5" y1="83" y2="83"/><ellipse cx="371.5" cy="94.9023" fill="#84BE84" rx="3" ry="3" style="stroke: #038048; stroke-width: 1.0;"/><text fill="#000000" font-family="sans-serif" font-size="11" lengthAdjust="spacingAndGlyphs" textLength="145" x="380.5" y="97.2104">__init__(self, access_info)</text><!--
@startuml
package PresentationLayer <<Folder>> {

}
package BusinessLayer <<Folder>> {

}
package DataAccessLayer <<Folder>> {
  class InternalAPI {
    - -
    + __init__(self, access_info)
  }
}
@enduml

PlantUML version 1.2018.03(Thu Apr 05 18:59:15 CEST 2018)
(GPL source distribution)
Java Runtime: OpenJDK Runtime Environment
JVM: OpenJDK 64-Bit Server VM
Java Version: 1.8.0_162-b12
Operating System: Linux
OS Version: 4.15.15-1-ARCH
Default Encoding: UTF-8
Language: en
Country: US
--></g></svg>