<?xml version="1.0" encoding="UTF-8" standalone="no"?><svg xmlns="http://www.w3.org/2000/svg" xmlns:xlink="http://www.w3.org/1999/xlink" contentScriptType="application/ecmascript" contentStyleType="text/css" height="498px" preserveAspectRatio="none" style="width:257px;height:498px;" version="1.1" viewBox="0 0 257 498"
    width="257px" zoomAndPan="magnify"><defs><filter height="300%" id="f1sxg41q0ul9h8" width="300%" x="-1" y="-1"><feGaussianBlur result="blurOut" stdDeviation="2.0"/><feColorMatrix in="blurOut" result="blurOut2" type="matrix" values="0 0 0 0 0 0 0 0 0 0 0 0 0 0 0 0 0 0 .4 0"/><feOffset dx="4.0" dy="4.0" in="blurOut2" result="blurOut3"/><feBlend in="SourceGraphic" in2="blurOut3" mode="normal"/></filter></defs><g><!--class IInternalAPI--><rect fill="#FEFECE" filter="url(#f1sxg41q0ul9h8)" height="196.8516" id="IInternalAPI" style="stroke: #A80036; stroke-width: 1.5;" width="240" x="6" y="8"/><ellipse cx="85.75" cy="24" fill="#B4A7E5" rx="11" ry="11" style="stroke: #A80036; stroke-width: 1.0;"/><path d="M81.6719,19.7656 L81.6719,17.6094 L89.0625,17.6094 L89.0625,19.7656 L86.5938,19.7656 L86.5938,27.8438 L89.0625,27.8438 L89.0625,30 L81.6719,30 L81.6719,27.8438 L84.1406,27.8438 L84.1406,19.7656 L81.6719,19.7656 Z "/><text fill="#000000" font-family="sans-serif" font-size="12" font-style="italic" lengthAdjust="spacingAndGlyphs" textLength="72" x="106.25" y="28.1543">IInternalAPI</text><line style="stroke: #A80036; stroke-width: 1.5;" x1="7" x2="245" y1="40" y2="40"/><line style="stroke: #A80036; stroke-width: 1.0;" x1="7" x2="245" y1="48" y2="48"/><ellipse cx="17" cy="59.9023" fill="#84BE84" rx="3" ry="3" style="stroke: #038048; stroke-width: 1.0;"/><text fill="#000000" font-family="sans-serif" font-size="11" lengthAdjust="spacingAndGlyphs" textLength="33" x="26" y="62.2104">auth()</text><rect fill="#F24D5C" height="6" style="stroke: #C82930; stroke-width: 1.0;" width="6" x="14" y="69.707"/><text fill="#000000" font-family="sans-serif" font-size="11" lengthAdjust="spacingAndGlyphs" textLength="214" x="26" y="75.0151">getLongLifeUserToken(String) : String</text><ellipse cx="17" cy="85.5117" fill="#84BE84" rx="3" ry="3" style="stroke: #038048; stroke-width: 1.0;"/><text fill="#000000" font-family="sans-serif" font-size="11" lengthAdjust="spacingAndGlyphs" textLength="142" x="26" y="87.8198">getPosts(Object) : Object</text><ellipse cx="17" cy="98.3164" fill="#84BE84" rx="3" ry="3" style="stroke: #038048; stroke-width: 1.0;"/><text fill="#000000" font-family="sans-serif" font-size="11" lengthAdjust="spacingAndGlyphs" textLength="172" x="26" y="100.6245">getComments(Object) : Object</text><ellipse cx="17" cy="111.1211" fill="#84BE84" rx="3" ry="3" style="stroke: #038048; stroke-width: 1.0;"/><text fill="#000000" font-family="sans-serif" font-size="11" lengthAdjust="spacingAndGlyphs" textLength="182" x="26" y="113.4292">getUserByName(String) : Object</text><line style="stroke: #A80036; stroke-width: 1.0; stroke-dasharray: 1.0,2.0;" x1="7" x2="245" y1="120.0234" y2="120.0234"/><ellipse cx="17" cy="131.9258" fill="#84BE84" rx="3" ry="3" style="stroke: #038048; stroke-width: 1.0;"/><text fill="#000000" font-family="sans-serif" font-size="11" lengthAdjust="spacingAndGlyphs" textLength="131" x="26" y="134.2339">answerFriendRequest()</text><ellipse cx="17" cy="144.7305" fill="#84BE84" rx="3" ry="3" style="stroke: #038048; stroke-width: 1.0;"/><text fill="#000000" font-family="sans-serif" font-size="11" lengthAdjust="spacingAndGlyphs" textLength="162" x="26" y="147.0386">setUserdata([String, String])</text><ellipse cx="17" cy="157.5352" fill="#84BE84" rx="3" ry="3" style="stroke: #038048; stroke-width: 1.0;"/><text fill="#000000" font-family="sans-serif" font-size="11" lengthAdjust="spacingAndGlyphs" textLength="95" x="26" y="159.8433">writePost(String)</text><ellipse cx="17" cy="170.3398" fill="#84BE84" rx="3" ry="3" style="stroke: #038048; stroke-width: 1.0;"/><text fill="#000000" font-family="sans-serif" font-size="11" lengthAdjust="spacingAndGlyphs" textLength="169" x="26" y="172.6479">writeComment(String, Object)</text><ellipse cx="17" cy="183.1445" fill="#84BE84" rx="3" ry="3" style="stroke: #038048; stroke-width: 1.0;"/><text fill="#000000" font-family="sans-serif" font-size="11" lengthAdjust="spacingAndGlyphs" textLength="101" x="26" y="185.4526">toggleLike(Object)</text><ellipse cx="17" cy="195.9492" fill="#84BE84" rx="3" ry="3" style="stroke: #038048; stroke-width: 1.0;"/><text fill="#000000" font-family="sans-serif" font-size="11" lengthAdjust="spacingAndGlyphs" textLength="204" x="26" y="198.2573">sendPrivateMessage(String, Object)</text><!--class InternalAPI--><rect fill="#FEFECE" filter="url(#f1sxg41q0ul9h8)" height="222.4609" id="InternalAPI" style="stroke: #A80036; stroke-width: 1.5;" width="240" x="6" y="265"/><ellipse cx="88.25" cy="281" fill="#ADD1B2" rx="11" ry="11" style="stroke: #A80036; stroke-width: 1.0;"/><path d="M91.2188,286.6406 Q90.6406,286.9375 90,287.0859 Q89.3594,287.2344 88.6563,287.2344 Q86.1563,287.2344 84.8359,285.5859 Q83.5156,283.9375 83.5156,280.8125 Q83.5156,277.6875 84.8359,276.0313 Q86.1563,274.375 88.6563,274.375 Q89.3594,274.375 90.0078,274.5313 Q90.6563,274.6875 91.2188,274.9844 L91.2188,277.7031 Q90.5938,277.125 90,276.8516 Q89.4063,276.5781 88.7813,276.5781 Q87.4375,276.5781 86.75,277.6484 Q86.0625,278.7188 86.0625,280.8125 Q86.0625,282.9063 86.75,283.9766 Q87.4375,285.0469 88.7813,285.0469 Q89.4063,285.0469 90,284.7734 Q90.5938,284.5 91.2188,283.9219 L91.2188,286.6406 Z "/><text fill="#000000" font-family="sans-serif" font-size="12" lengthAdjust="spacingAndGlyphs" textLength="67" x="108.75" y="285.1543">InternalAPI</text><line style="stroke: #A80036; stroke-width: 1.5;" x1="7" x2="245" y1="297" y2="297"/><ellipse cx="17" cy="308.9023" fill="none" rx="3" ry="3" style="stroke: #038048; stroke-width: 1.0;"/><text fill="#000000" font-family="sans-serif" font-size="11" lengthAdjust="spacingAndGlyphs" textLength="158" x="26" y="311.2104">ShortLifeUserToken : String</text><ellipse cx="17" cy="321.707" fill="none" rx="3" ry="3" style="stroke: #038048; stroke-width: 1.0;"/><text fill="#000000" font-family="sans-serif" font-size="11" lengthAdjust="spacingAndGlyphs" textLength="154" x="26" y="324.0151">LongLifeUserToken : String</text><line style="stroke: #A80036; stroke-width: 1.0;" x1="7" x2="245" y1="330.6094" y2="330.6094"/><ellipse cx="17" cy="342.5117" fill="#84BE84" rx="3" ry="3" style="stroke: #038048; stroke-width: 1.0;"/><text fill="#000000" font-family="sans-serif" font-size="11" lengthAdjust="spacingAndGlyphs" textLength="33" x="26" y="344.8198">auth()</text><rect fill="#F24D5C" height="6" style="stroke: #C82930; stroke-width: 1.0;" width="6" x="14" y="352.3164"/><text fill="#000000" font-family="sans-serif" font-size="11" lengthAdjust="spacingAndGlyphs" textLength="214" x="26" y="357.6245">getLongLifeUserToken(String) : String</text><ellipse cx="17" cy="368.1211" fill="#84BE84" rx="3" ry="3" style="stroke: #038048; stroke-width: 1.0;"/><text fill="#000000" font-family="sans-serif" font-size="11" lengthAdjust="spacingAndGlyphs" textLength="142" x="26" y="370.4292">getPosts(Object) : Object</text><ellipse cx="17" cy="380.9258" fill="#84BE84" rx="3" ry="3" style="stroke: #038048; stroke-width: 1.0;"/><text fill="#000000" font-family="sans-serif" font-size="11" lengthAdjust="spacingAndGlyphs" textLength="172" x="26" y="383.2339">getComments(Object) : Object</text><ellipse cx="17" cy="393.7305" fill="#84BE84" rx="3" ry="3" style="stroke: #038048; stroke-width: 1.0;"/><text fill="#000000" font-family="sans-serif" font-size="11" lengthAdjust="spacingAndGlyphs" textLength="182" x="26" y="396.0386">getUserByName(String) : Object</text><line style="stroke: #A80036; stroke-width: 1.0; stroke-dasharray: 1.0,2.0;" x1="7" x2="245" y1="402.6328" y2="402.6328"/><ellipse cx="17" cy="414.5352" fill="#84BE84" rx="3" ry="3" style="stroke: #038048; stroke-width: 1.0;"/><text fill="#000000" font-family="sans-serif" font-size="11" lengthAdjust="spacingAndGlyphs" textLength="131" x="26" y="416.8433">answerFriendRequest()</text><ellipse cx="17" cy="427.3398" fill="#84BE84" rx="3" ry="3" style="stroke: #038048; stroke-width: 1.0;"/><text fill="#000000" font-family="sans-serif" font-size="11" lengthAdjust="spacingAndGlyphs" textLength="162" x="26" y="429.6479">setUserdata([String, String])</text><ellipse cx="17" cy="440.1445" fill="#84BE84" rx="3" ry="3" style="stroke: #038048; stroke-width: 1.0;"/><text fill="#000000" font-family="sans-serif" font-size="11" lengthAdjust="spacingAndGlyphs" textLength="95" x="26" y="442.4526">writePost(String)</text><ellipse cx="17" cy="452.9492" fill="#84BE84" rx="3" ry="3" style="stroke: #038048; stroke-width: 1.0;"/><text fill="#000000" font-family="sans-serif" font-size="11" lengthAdjust="spacingAndGlyphs" textLength="169" x="26" y="455.2573">writeComment(String, Object)</text><ellipse cx="17" cy="465.7539" fill="#84BE84" rx="3" ry="3" style="stroke: #038048; stroke-width: 1.0;"/><text fill="#000000" font-family="sans-serif" font-size="11" lengthAdjust="spacingAndGlyphs" textLength="101" x="26" y="468.062">toggleLike(Object)</text><ellipse cx="17" cy="478.5586" fill="#84BE84" rx="3" ry="3" style="stroke: #038048; stroke-width: 1.0;"/><text fill="#000000" font-family="sans-serif" font-size="11" lengthAdjust="spacingAndGlyphs" textLength="204" x="26" y="480.8667">sendPrivateMessage(String, Object)</text><!--link IInternalAPI to InternalAPI--><path d="M126,225.6134 C126,238.6763 126,251.9378 126,264.8981 " fill="none" id="IInternalAPI-InternalAPI" style="stroke: #A80036; stroke-width: 1.0;"/><polygon fill="none" points="119.0001,225.3216,126,205.3216,133.0001,225.3215,119.0001,225.3216" style="stroke: #A80036; stroke-width: 1.0;"/><!--
@startuml
interface IInternalAPI {
  - -
  + auth()
  - getLongLifeUserToken(String) : String
  + getPosts(Object) : Object
  + getComments(Object) : Object
  + getUserByName(String) : Object
  ..
  + answerFriendRequest()
  + setUserdata([String, String])
  + writePost(String)
  + writeComment(String, Object)
  + toggleLike(Object)
  + sendPrivateMessage(String, Object)
}

class InternalAPI {
  + ShortLifeUserToken : String
  + LongLifeUserToken : String
  - -
  + auth()
  - getLongLifeUserToken(String) : String
  + getPosts(Object) : Object
  + getComments(Object) : Object
  + getUserByName(String) : Object
  ..
  + answerFriendRequest()
  + setUserdata([String, String])
  + writePost(String)
  + writeComment(String, Object)
  + toggleLike(Object)
  + sendPrivateMessage(String, Object)
}

IInternalAPI <|- - InternalAPI
@enduml

PlantUML version 1.2018.03(Thu Apr 05 18:59:15 CEST 2018)
(GPL source distribution)
Java Runtime: OpenJDK Runtime Environment
JVM: OpenJDK 64-Bit Server VM
Java Version: 1.8.0_162-b12
Operating System: Linux
OS Version: 4.15.15-1-ARCH
Default Encoding: UTF-8
Language: en
Country: US
--></g></svg>