<?xml version="1.0" encoding="UTF-8" standalone="no"?><svg xmlns="http://www.w3.org/2000/svg" xmlns:xlink="http://www.w3.org/1999/xlink" contentScriptType="application/ecmascript" contentStyleType="text/css" height="322px" preserveAspectRatio="none" style="width:1209px;height:322px;" version="1.1" viewBox="0 0 1209 322"
    width="1209px" zoomAndPan="magnify"><defs><filter height="300%" id="f1cpfl97eqyahz" width="300%" x="-1" y="-1"><feGaussianBlur result="blurOut" stdDeviation="2.0"/><feColorMatrix in="blurOut" result="blurOut2" type="matrix" values="0 0 0 0 0 0 0 0 0 0 0 0 0 0 0 0 0 0 .4 0"/><feOffset dx="4.0" dy="4.0" in="blurOut2" result="blurOut3"/><feBlend in="SourceGraphic" in2="blurOut3" mode="normal"/></filter></defs><g><!--cluster active--><rect fill="#FFFFFF" filter="url(#f1cpfl97eqyahz)" height="80" style="stroke: #000000; stroke-width: 1.5;" width="817" x="14" y="231"/><text fill="#000000" font-family="sans-serif" font-size="14" font-weight="bold" lengthAdjust="spacingAndGlyphs" textLength="47" x="399" y="245.9951">active</text><!--cluster passive--><rect fill="#FFFFFF" filter="url(#f1cpfl97eqyahz)" height="82" style="stroke: #000000; stroke-width: 1.5;" width="457" x="596" y="124"/><text fill="#000000" font-family="sans-serif" font-size="14" font-weight="bold" lengthAdjust="spacingAndGlyphs" textLength="60" x="794.5" y="138.9951">passive</text><!--cluster parametrize--><rect fill="#FFFFFF" filter="url(#f1cpfl97eqyahz)" height="64" style="stroke: #000000; stroke-width: 1.5;" width="126" x="1072" y="133"/><text fill="#000000" font-family="sans-serif" font-size="14" font-weight="bold" lengthAdjust="spacingAndGlyphs" textLength="95" x="1087.5" y="147.9951">parametrize</text><ellipse cx="112.1728" cy="280.3346" fill="#FEFECE" filter="url(#f1cpfl97eqyahz)" rx="89.6728" ry="20.3346" style="stroke: #A80036; stroke-width: 1.5;"/><text fill="#000000" font-family="sans-serif" font-size="14" lengthAdjust="spacingAndGlyphs" textLength="153" x="35.6728" y="284.983">Send Private Message</text><ellipse cx="307.9465" cy="280.6893" fill="#FEFECE" filter="url(#f1cpfl97eqyahz)" rx="71.4465" ry="16.6893" style="stroke: #A80036; stroke-width: 1.5;"/><text fill="#000000" font-family="sans-serif" font-size="14" lengthAdjust="spacingAndGlyphs" textLength="110" x="252.9465" y="285.3377">Post Something</text><ellipse cx="514.0203" cy="280.3041" fill="#FEFECE" filter="url(#f1cpfl97eqyahz)" rx="99.5203" ry="22.3041" style="stroke: #A80036; stroke-width: 1.5;"/><text fill="#000000" font-family="sans-serif" font-size="14" lengthAdjust="spacingAndGlyphs" textLength="175" x="426.5203" y="284.9525">Send Friendship Request</text><ellipse cx="736.0368" cy="280.3074" fill="#FEFECE" filter="url(#f1cpfl97eqyahz)" rx="87.0368" ry="19.8074" style="stroke: #A80036; stroke-width: 1.5;"/><text fill="#000000" font-family="sans-serif" font-size="14" lengthAdjust="spacingAndGlyphs" textLength="147" x="662.5368" y="284.9558">Comment Something</text><ellipse cx="938.8679" cy="174.6736" fill="#FEFECE" filter="url(#f1cpfl97eqyahz)" rx="106.3679" ry="23.6736" style="stroke: #A80036; stroke-width: 1.5;"/><text fill="#000000" font-family="sans-serif" font-size="14" lengthAdjust="spacingAndGlyphs" textLength="190" x="843.8679" y="179.322">Answer Friendship Request</text><ellipse cx="700.8591" cy="174.6718" fill="#FEFECE" filter="url(#f1cpfl97eqyahz)" rx="96.3591" ry="21.6718" style="stroke: #A80036; stroke-width: 1.5;"/><text fill="#000000" font-family="sans-serif" font-size="14" lengthAdjust="spacingAndGlyphs" textLength="168" x="616.8591" y="179.3203">Answer Private Message</text><ellipse cx="1135.1188" cy="174.5236" fill="#FEFECE" filter="url(#f1cpfl97eqyahz)" rx="54.6188" ry="14.5236" style="stroke: #A80036; stroke-width: 1.5;"/><text fill="#000000" font-family="sans-serif" font-size="14" lengthAdjust="spacingAndGlyphs" textLength="73" x="1098.6188" y="179.1721">Set up Bot</text><!--entity Facebook--><ellipse cx="516" cy="18" fill="#FEFECE" filter="url(#f1cpfl97eqyahz)" rx="8" ry="8" style="stroke: #A80036; stroke-width: 2.0;"/><path d="M516,26 L516,53 M503,34 L529,34 M516,53 L503,68 M516,53 L529,68 " fill="none" filter="url(#f1cpfl97eqyahz)" style="stroke: #A80036; stroke-width: 2.0;"/><text fill="#000000" font-family="sans-serif" font-size="14" lengthAdjust="spacingAndGlyphs" textLength="68" x="482" y="87.9951">Facebook</text><!--entity User--><ellipse cx="1135" cy="18" fill="#FEFECE" filter="url(#f1cpfl97eqyahz)" rx="8" ry="8" style="stroke: #A80036; stroke-width: 2.0;"/><path d="M1135,26 L1135,53 M1122,34 L1148,34 M1135,53 L1122,68 M1135,53 L1148,68 " fill="none" filter="url(#f1cpfl97eqyahz)" style="stroke: #A80036; stroke-width: 2.0;"/><text fill="#000000" font-family="sans-serif" font-size="14" lengthAdjust="spacingAndGlyphs" textLength="32" x="1119" y="87.9951">User</text><!--link Facebook to APM--><path d="M481.8343,65.5404 C451.3489,80.0983 405.6822,102.5124 367,124 C286.1174,168.9295 194.3365,227.1023 145.9813,258.3372 " fill="none" id="Facebook-APM" style="stroke: #A80036; stroke-width: 1.0;"/><polygon fill="#A80036" points="141.7232,261.0906,151.4528,259.5626,145.9219,258.3756,147.1088,252.8447,141.7232,261.0906" style="stroke: #A80036; stroke-width: 1.0;"/><!--link Facebook to APOST--><path d="M481.8859,87.3863 C437.4059,136.7848 361.1822,221.4371 326.3437,260.1279 " fill="none" id="Facebook-APOST" style="stroke: #A80036; stroke-width: 1.0;"/><polygon fill="#A80036" points="322.7038,264.1703,331.6987,260.1588,326.0496,260.4547,325.7537,254.8056,322.7038,264.1703" style="stroke: #A80036; stroke-width: 1.0;"/><!--link Facebook to AFR--><path d="M515.6401,91.065 C515.2354,137.8069 514.5894,212.4191 514.2412,252.6375 " fill="none" id="Facebook-AFR" style="stroke: #A80036; stroke-width: 1.0;"/><polygon fill="#A80036" points="514.1962,257.841,518.2742,248.8761,514.2396,252.8412,510.2745,248.8066,514.1962,257.841" style="stroke: #A80036; stroke-width: 1.0;"/><!--link Facebook to AC--><path d="M526.7835,91.1747 C537.4769,125.5427 556.8406,173.7255 588,206 C595.9678,214.253 651.469,241.1466 692.1731,260.2463 " fill="none" id="Facebook-AC" style="stroke: #A80036; stroke-width: 1.0;"/><polygon fill="#A80036" points="697.0595,262.5351,690.606,255.0952,692.5316,260.4142,687.2126,262.3398,697.0595,262.5351" style="stroke: #A80036; stroke-width: 1.0;"/><!--link Facebook to PFR--><path d="M550.0748,56.3331 C606.0471,67.9249 720.6607,93.2106 815,124 C839.0341,131.844 865.0285,142.1383 886.9794,151.3849 " fill="none" id="Facebook-PFR" style="stroke: #A80036; stroke-width: 1.0;"/><polygon fill="#A80036" points="891.5999,153.3409,884.8714,146.1487,886.9955,151.3916,881.7526,153.5157,891.5999,153.3409" style="stroke: #A80036; stroke-width: 1.0;"/><!--link Facebook to PPM--><path d="M550.3635,72.7186 C583.3647,95.0167 632.9684,128.5327 666.1361,150.9433 " fill="none" id="Facebook-PPM" style="stroke: #A80036; stroke-width: 1.0;"/><polygon fill="#A80036" points="670.5012,153.8927,665.2834,145.5396,666.3583,151.0934,660.8045,152.1682,670.5012,153.8927" style="stroke: #A80036; stroke-width: 1.0;"/><!--link User to PSUPB--><path d="M1135,91.1232 C1135,112.6203 1135,137.8401 1135,154.8677 " fill="none" id="User-PSUPB" style="stroke: #A80036; stroke-width: 1.0;"/><polygon fill="#A80036" points="1135,159.876,1139,150.876,1135,154.876,1131,150.876,1135,159.876" style="stroke: #A80036; stroke-width: 1.0;"/><!--
@startuml

rectangle active {
  usecase APM as "Send Private Message"
  usecase APOST as "Post Something"
  usecase AFR as "Send Friendship Request"
  usecase AC as "Comment Something"
}

rectangle passive {
  usecase PFR as "Answer Friendship Request"
  usecase PPM as "Answer Private Message"
}

rectangle parametrize {
  usecase PSUPB as "Set up Bot"
}

:Facebook: - - -> APM
:Facebook: - - -> APOST
:Facebook: - - -> AFR
:Facebook: - - -> AC
:Facebook: - -> PFR
:Facebook: - -> PPM

:User: - -> PSUPB

@enduml

PlantUML version 1.2018.03(Thu Apr 05 18:59:15 CEST 2018)
(GPL source distribution)
Java Runtime: OpenJDK Runtime Environment
JVM: OpenJDK 64-Bit Server VM
Java Version: 1.8.0_162-b12
Operating System: Linux
OS Version: 4.15.15-1-ARCH
Default Encoding: UTF-8
Language: en
Country: US
--></g></svg>