<?xml version="1.0" encoding="UTF-8" standalone="no"?><svg xmlns="http://www.w3.org/2000/svg" xmlns:xlink="http://www.w3.org/1999/xlink" contentScriptType="application/ecmascript" contentStyleType="text/css" height="586px" preserveAspectRatio="none" style="width:1317px;height:586px;" version="1.1" viewBox="0 0 1317 586"
    width="1317px" zoomAndPan="magnify"><defs><filter height="300%" id="f6hg2upn9mxt9" width="300%" x="-1" y="-1"><feGaussianBlur result="blurOut" stdDeviation="2.0"/><feColorMatrix in="blurOut" result="blurOut2" type="matrix" values="0 0 0 0 0 0 0 0 0 0 0 0 0 0 0 0 0 0 .4 0"/><feOffset dx="4.0" dy="4.0" in="blurOut2" result="blurOut3"/><feBlend in="SourceGraphic" in2="blurOut3" mode="normal"/></filter></defs><g><!--cluster active--><rect fill="#FFFFFF" filter="url(#f6hg2upn9mxt9)" height="80" style="stroke: #000000; stroke-width: 1.5;" width="817" x="14" y="360"/><text fill="#000000" font-family="sans-serif" font-size="14" font-weight="bold" lengthAdjust="spacingAndGlyphs" textLength="47" x="399" y="374.9951">active</text><!--cluster passive--><rect fill="#FFFFFF" filter="url(#f6hg2upn9mxt9)" height="82" style="stroke: #000000; stroke-width: 1.5;" width="457" x="849" y="359"/><text fill="#000000" font-family="sans-serif" font-size="14" font-weight="bold" lengthAdjust="spacingAndGlyphs" textLength="60" x="1047.5" y="373.9951">passive</text><!--cluster parametrize--><rect fill="#FFFFFF" filter="url(#f6hg2upn9mxt9)" height="67" style="stroke: #000000; stroke-width: 1.5;" width="297" x="480" y="124"/><text fill="#000000" font-family="sans-serif" font-size="14" font-weight="bold" lengthAdjust="spacingAndGlyphs" textLength="95" x="581" y="138.9951">parametrize</text><ellipse cx="733.1728" cy="409.3346" fill="#FEFECE" filter="url(#f6hg2upn9mxt9)" rx="89.6728" ry="20.3346" style="stroke: #A80036; stroke-width: 1.5;"/><text fill="#000000" font-family="sans-serif" font-size="14" lengthAdjust="spacingAndGlyphs" textLength="153" x="656.6728" y="413.983">Send Private Message</text><ellipse cx="536.9465" cy="409.6893" fill="#FEFECE" filter="url(#f6hg2upn9mxt9)" rx="71.4465" ry="16.6893" style="stroke: #A80036; stroke-width: 1.5;"/><text fill="#000000" font-family="sans-serif" font-size="14" lengthAdjust="spacingAndGlyphs" textLength="110" x="481.9465" y="414.3377">Post Something</text><ellipse cx="331.0203" cy="409.3041" fill="#FEFECE" filter="url(#f6hg2upn9mxt9)" rx="99.5203" ry="22.3041" style="stroke: #A80036; stroke-width: 1.5;"/><text fill="#000000" font-family="sans-serif" font-size="14" lengthAdjust="spacingAndGlyphs" textLength="175" x="243.5203" y="413.9525">Send Friendship Request</text><ellipse cx="109.0368" cy="409.3074" fill="#FEFECE" filter="url(#f6hg2upn9mxt9)" rx="87.0368" ry="19.8074" style="stroke: #A80036; stroke-width: 1.5;"/><text fill="#000000" font-family="sans-serif" font-size="14" lengthAdjust="spacingAndGlyphs" textLength="147" x="35.5368" y="413.9558">Comment Something</text><ellipse cx="1191.8679" cy="409.6736" fill="#FEFECE" filter="url(#f6hg2upn9mxt9)" rx="106.3679" ry="23.6736" style="stroke: #A80036; stroke-width: 1.5;"/><text fill="#000000" font-family="sans-serif" font-size="14" lengthAdjust="spacingAndGlyphs" textLength="190" x="1096.8679" y="414.322">Answer Friendship Request</text><ellipse cx="953.8591" cy="409.6718" fill="#FEFECE" filter="url(#f6hg2upn9mxt9)" rx="96.3591" ry="21.6718" style="stroke: #A80036; stroke-width: 1.5;"/><text fill="#000000" font-family="sans-serif" font-size="14" lengthAdjust="spacingAndGlyphs" textLength="168" x="869.8591" y="414.3203">Answer Private Message</text><ellipse cx="714.1188" cy="167.0236" fill="#FEFECE" filter="url(#f6hg2upn9mxt9)" rx="54.6188" ry="14.5236" style="stroke: #A80036; stroke-width: 1.5;"/><text fill="#000000" font-family="sans-serif" font-size="14" lengthAdjust="spacingAndGlyphs" textLength="73" x="677.6188" y="171.6721">Set up Bot</text><ellipse cx="555.8859" cy="166.9772" fill="#FEFECE" filter="url(#f6hg2upn9mxt9)" rx="67.8859" ry="15.9772" style="stroke: #A80036; stroke-width: 1.5;"/><text fill="#000000" font-family="sans-serif" font-size="14" lengthAdjust="spacingAndGlyphs" textLength="101" x="505.3859" y="171.6256">Export Log-File</text><!--entity Bot--><ellipse cx="635" cy="253" fill="#FEFECE" filter="url(#f6hg2upn9mxt9)" rx="8" ry="8" style="stroke: #A80036; stroke-width: 2.0;"/><path d="M635,261 L635,288 M622,269 L648,269 M635,288 L622,303 M635,288 L648,303 " fill="none" filter="url(#f6hg2upn9mxt9)" style="stroke: #A80036; stroke-width: 2.0;"/><text fill="#000000" font-family="sans-serif" font-size="14" lengthAdjust="spacingAndGlyphs" textLength="24" x="623" y="322.9951">Bot</text><!--entity User--><ellipse cx="635" cy="18" fill="#FEFECE" filter="url(#f6hg2upn9mxt9)" rx="8" ry="8" style="stroke: #A80036; stroke-width: 2.0;"/><path d="M635,26 L635,53 M622,34 L648,34 M635,53 L622,68 M635,53 L648,68 " fill="none" filter="url(#f6hg2upn9mxt9)" style="stroke: #A80036; stroke-width: 2.0;"/><text fill="#000000" font-family="sans-serif" font-size="14" lengthAdjust="spacingAndGlyphs" textLength="32" x="619" y="87.9951">User</text><!--entity Facebook--><ellipse cx="635" cy="503" fill="#FEFECE" filter="url(#f6hg2upn9mxt9)" rx="8" ry="8" style="stroke: #A80036; stroke-width: 2.0;"/><path d="M635,511 L635,538 M622,519 L648,519 M635,538 L622,553 M635,538 L648,553 " fill="none" filter="url(#f6hg2upn9mxt9)" style="stroke: #A80036; stroke-width: 2.0;"/><text fill="#000000" font-family="sans-serif" font-size="14" lengthAdjust="spacingAndGlyphs" textLength="68" x="601" y="572.9951">Facebook</text><!--link Bot to APM--><path d="M650.0977,303.7573 C667.2528,325.6388 695.2823,361.3906 713.9327,385.1795 " fill="none" id="Bot-APM" style="stroke: #A80036; stroke-width: 1.0;"/><polygon fill="#A80036" points="717.0715,389.183,714.6664,379.6323,713.9865,385.2482,708.3707,384.5683,717.0715,389.183" style="stroke: #A80036; stroke-width: 1.0;"/><!--link Bot to APOST--><path d="M619.9023,303.7573 C601.7321,326.9336 571.3626,365.6702 552.8592,389.2714 " fill="none" id="Bot-APOST" style="stroke: #A80036; stroke-width: 1.0;"/><polygon fill="#A80036" points="549.7717,393.2095,558.4725,388.5948,552.8567,389.2747,552.1768,383.6588,549.7717,393.2095" style="stroke: #A80036; stroke-width: 1.0;"/><!--link Bot to AFR--><path d="M619.9131,290.3432 C588.0479,302.7214 511.5891,332.6161 448,359 C426.0574,368.1042 401.9378,378.4558 381.3279,387.4065 " fill="none" id="Bot-AFR" style="stroke: #A80036; stroke-width: 1.0;"/><polygon fill="#A80036" points="376.7144,389.4122,386.5629,389.4925,381.2999,387.4188,383.3735,382.1557,376.7144,389.4122" style="stroke: #A80036; stroke-width: 1.0;"/><!--link Bot to AC--><path d="M619.7245,285.6886 C564.1113,290.3305 367.661,309.4866 214,359 C190.7489,366.4921 166.0681,378.1538 146.4809,388.3838 " fill="none" id="Bot-AC" style="stroke: #A80036; stroke-width: 1.0;"/><polygon fill="#A80036" points="141.6148,390.9504,151.4415,390.2896,146.0373,388.6177,147.7092,383.2136,141.6148,390.9504" style="stroke: #A80036; stroke-width: 1.0;"/><!--link Bot to PFR--><path d="M650.2214,285.9147 C706.5431,291.401 908.1238,313.2748 1068,359 C1092.8287,366.1011 1119.4608,376.5497 1141.6549,386.1029 " fill="none" id="Bot-PFR" style="stroke: #A80036; stroke-width: 1.0;"/><polygon fill="#A80036" points="1146.3213,388.1264,1139.6555,380.8761,1141.734,386.1373,1136.4728,388.2158,1146.3213,388.1264" style="stroke: #A80036; stroke-width: 1.0;"/><!--link Bot to PPM--><path d="M650.2245,289.6877 C684.3,301.3798 769.2003,330.9621 839,359 C861.5736,368.0676 886.3126,378.8227 907.0425,388.0724 " fill="none" id="Bot-PPM" style="stroke: #A80036; stroke-width: 1.0;"/><polygon fill="#A80036" points="911.6745,390.1439,905.0918,382.8181,907.1102,388.1026,901.8257,390.121,911.6745,390.1439" style="stroke: #A80036; stroke-width: 1.0;"/><!--link User to PSUPB--><path d="M651.1775,73.5614 C666.034,95.6581 687.7483,127.9547 701.3657,148.2085 " fill="none" id="User-PSUPB" style="stroke: #A80036; stroke-width: 1.0;"/><polygon fill="#A80036" points="704.31,152.5876,702.6077,142.887,701.5201,148.4383,695.9688,147.3508,704.31,152.5876" style="stroke: #A80036; stroke-width: 1.0;"/><!--link User to PLOG--><path d="M618.8225,73.5614 C604.325,95.1242 583.2972,126.3998 569.6355,146.7194 " fill="none" id="User-PLOG" style="stroke: #A80036; stroke-width: 1.0;"/><polygon fill="#A80036" points="566.837,150.8816,575.1782,145.6448,569.6269,146.7323,568.5393,141.181,566.837,150.8816" style="stroke: #A80036; stroke-width: 1.0;"/><!--link APM to Facebook--><path d="M713.8016,433.9877 C700.671,450.736 682.9365,473.3565 667.6166,492.8972 " fill="none" id="APM-Facebook" style="stroke: #A80036; stroke-width: 1.0;"/><polygon fill="#A80036" points="717.0365,429.8616,708.3358,434.4765,713.9516,433.7965,714.6316,439.4123,717.0365,429.8616" style="stroke: #A80036; stroke-width: 1.0;"/><!--link APOST to Facebook--><path d="M553.0661,429.9925 C566.4012,447.0016 585.7953,471.7389 602.3674,492.8768 " fill="none" id="APOST-Facebook" style="stroke: #A80036; stroke-width: 1.0;"/><polygon fill="#A80036" points="549.8118,425.8416,552.2167,435.3923,552.8967,429.7765,558.5125,430.4565,549.8118,425.8416" style="stroke: #A80036; stroke-width: 1.0;"/><!--link AFR to Facebook--><path d="M383.9587,431.2758 C446.2782,456.9006 547.9359,498.7006 600.7355,520.411 " fill="none" id="AFR-Facebook" style="stroke: #A80036; stroke-width: 1.0;"/><polygon fill="#A80036" points="379.1697,429.3066,385.9722,436.4288,383.794,431.2081,389.0147,429.0299,379.1697,429.3066" style="stroke: #A80036; stroke-width: 1.0;"/><!--link AC to Facebook--><path d="M165.1612,427.1722 C180.8985,431.8993 198.0612,436.8452 214,441 C356.7266,478.2052 529.0951,513.518 600.9652,527.8187 " fill="none" id="AC-Facebook" style="stroke: #A80036; stroke-width: 1.0;"/><polygon fill="#A80036" points="160.3259,425.7134,167.7866,432.1428,165.1127,427.1578,170.0977,424.4839,160.3259,425.7134" style="stroke: #A80036; stroke-width: 1.0;"/><!--link PFR to Facebook--><path d="M1117.8594,428.7991 C1101.4667,432.9362 1084.1666,437.2024 1068,441 C919.9478,475.7779 742.2553,512.6177 669.0567,527.5821 " fill="none" id="PFR-Facebook" style="stroke: #A80036; stroke-width: 1.0;"/><polygon fill="#A80036" points="1122.9154,427.5199,1113.2092,425.8497,1118.0681,428.7463,1115.1715,433.6053,1122.9154,427.5199" style="stroke: #A80036; stroke-width: 1.0;"/><!--link PPM to Facebook--><path d="M901.1965,430.191 C835.4469,455.955 725.0192,499.226 669.3255,521.0496 " fill="none" id="PPM-Facebook" style="stroke: #A80036; stroke-width: 1.0;"/><polygon fill="#A80036" points="906.2425,428.2138,896.4035,427.7732,901.5872,430.038,899.3223,435.2217,906.2425,428.2138" style="stroke: #A80036; stroke-width: 1.0;"/><!--link PSUPB to Bot--><path d="M701.4793,185.6225 C687.564,206.3194 665.0932,239.7411 650.1852,261.9144 " fill="none" id="PSUPB-Bot" style="stroke: #A80036; stroke-width: 1.0;"/><polygon fill="#A80036" points="704.313,181.4078,695.9719,186.6448,701.5232,185.5571,702.6108,191.1085,704.313,181.4078" style="stroke: #A80036; stroke-width: 1.0;"/><!--link PLOG to Bot--><path d="M569.5194,187.1079 C583.5287,207.9446 605.3735,240.4352 619.93,262.0858 " fill="none" id="PLOG-Bot" style="stroke: #A80036; stroke-width: 1.0;"/><polygon fill="#A80036" points="566.6543,182.8466,568.3565,192.5473,569.4441,186.9959,574.9954,188.0836,566.6543,182.8466" style="stroke: #A80036; stroke-width: 1.0;"/><!--
@startuml

rectangle active {
  usecase APM as "Send Private Message"
  usecase APOST as "Post Something"
  usecase AFR as "Send Friendship Request"
  usecase AC as "Comment Something"
}

rectangle passive {
  usecase PFR as "Answer Friendship Request"
  usecase PPM as "Answer Private Message"
}

rectangle parametrize {
  usecase PSUPB as "Set up Bot"
  usecase PLOG as "Export Log-File"
}

:Bot: - -> APM
:Bot: - -> APOST
:Bot: - -> AFR
:Bot: - -> AC
:Bot: - -> PFR
:Bot: - -> PPM

:User: - -> PSUPB
:User: - -> PLOG

APM   <- - :Facebook:
APOST <- - :Facebook:
AFR   <- - :Facebook:
AC    <- - :Facebook:
PFR   <- - :Facebook:
PPM   <- - :Facebook:

PSUPB <- - :Bot:
PLOG  <- - :Bot:

@enduml

PlantUML version 1.2018.03(Thu Apr 05 18:59:15 CEST 2018)
(GPL source distribution)
Java Runtime: OpenJDK Runtime Environment
JVM: OpenJDK 64-Bit Server VM
Java Version: 1.8.0_162-b12
Operating System: Linux
OS Version: 4.15.15-1-ARCH
Default Encoding: UTF-8
Language: en
Country: US
--></g></svg>