<?xml version="1.0" encoding="UTF-8" standalone="no"?><svg xmlns="http://www.w3.org/2000/svg" xmlns:xlink="http://www.w3.org/1999/xlink" contentScriptType="application/ecmascript" contentStyleType="text/css" height="502px" preserveAspectRatio="none" style="width:1317px;height:502px;" version="1.1" viewBox="0 0 1317 502"
    width="1317px" zoomAndPan="magnify"><defs><filter height="300%" id="f14ib1lcd9t0b5" width="300%" x="-1" y="-1"><feGaussianBlur result="blurOut" stdDeviation="2.0"/><feColorMatrix in="blurOut" result="blurOut2" type="matrix" values="0 0 0 0 0 0 0 0 0 0 0 0 0 0 0 0 0 0 .4 0"/><feOffset dx="4.0" dy="4.0" in="blurOut2" result="blurOut3"/><feBlend in="SourceGraphic" in2="blurOut3" mode="normal"/></filter></defs><g><!--cluster active--><rect fill="#FFFFFF" filter="url(#f14ib1lcd9t0b5)" height="80" style="stroke: #000000; stroke-width: 1.5;" width="817" x="14" y="276"/><text fill="#000000" font-family="sans-serif" font-size="14" font-weight="bold" lengthAdjust="spacingAndGlyphs" textLength="47" x="399" y="290.9951">active</text><!--cluster passive--><rect fill="#FFFFFF" filter="url(#f14ib1lcd9t0b5)" height="82" style="stroke: #000000; stroke-width: 1.5;" width="457" x="849" y="275"/><text fill="#000000" font-family="sans-serif" font-size="14" font-weight="bold" lengthAdjust="spacingAndGlyphs" textLength="60" x="1047.5" y="289.9951">passive</text><!--cluster parametrize--><rect fill="#FFFFFF" filter="url(#f14ib1lcd9t0b5)" height="64" style="stroke: #000000; stroke-width: 1.5;" width="126" x="572" y="16"/><text fill="#000000" font-family="sans-serif" font-size="14" font-weight="bold" lengthAdjust="spacingAndGlyphs" textLength="95" x="587.5" y="30.9951">parametrize</text><ellipse cx="733.1728" cy="325.3346" fill="#FEFECE" filter="url(#f14ib1lcd9t0b5)" rx="89.6728" ry="20.3346" style="stroke: #A80036; stroke-width: 1.5;"/><text fill="#000000" font-family="sans-serif" font-size="14" lengthAdjust="spacingAndGlyphs" textLength="153" x="656.6728" y="329.983">Send Private Message</text><ellipse cx="536.9465" cy="325.6893" fill="#FEFECE" filter="url(#f14ib1lcd9t0b5)" rx="71.4465" ry="16.6893" style="stroke: #A80036; stroke-width: 1.5;"/><text fill="#000000" font-family="sans-serif" font-size="14" lengthAdjust="spacingAndGlyphs" textLength="110" x="481.9465" y="330.3377">Post Something</text><ellipse cx="331.0203" cy="325.3041" fill="#FEFECE" filter="url(#f14ib1lcd9t0b5)" rx="99.5203" ry="22.3041" style="stroke: #A80036; stroke-width: 1.5;"/><text fill="#000000" font-family="sans-serif" font-size="14" lengthAdjust="spacingAndGlyphs" textLength="175" x="243.5203" y="329.9525">Send Friendship Request</text><ellipse cx="109.0368" cy="325.3074" fill="#FEFECE" filter="url(#f14ib1lcd9t0b5)" rx="87.0368" ry="19.8074" style="stroke: #A80036; stroke-width: 1.5;"/><text fill="#000000" font-family="sans-serif" font-size="14" lengthAdjust="spacingAndGlyphs" textLength="147" x="35.5368" y="329.9558">Comment Something</text><ellipse cx="1191.8679" cy="325.6736" fill="#FEFECE" filter="url(#f14ib1lcd9t0b5)" rx="106.3679" ry="23.6736" style="stroke: #A80036; stroke-width: 1.5;"/><text fill="#000000" font-family="sans-serif" font-size="14" lengthAdjust="spacingAndGlyphs" textLength="190" x="1096.8679" y="330.322">Answer Friendship Request</text><ellipse cx="953.8591" cy="325.6718" fill="#FEFECE" filter="url(#f14ib1lcd9t0b5)" rx="96.3591" ry="21.6718" style="stroke: #A80036; stroke-width: 1.5;"/><text fill="#000000" font-family="sans-serif" font-size="14" lengthAdjust="spacingAndGlyphs" textLength="168" x="869.8591" y="330.3203">Answer Private Message</text><ellipse cx="635.1188" cy="57.5236" fill="#FEFECE" filter="url(#f14ib1lcd9t0b5)" rx="54.6188" ry="14.5236" style="stroke: #A80036; stroke-width: 1.5;"/><text fill="#000000" font-family="sans-serif" font-size="14" lengthAdjust="spacingAndGlyphs" textLength="73" x="598.6188" y="62.1721">Set up Bot</text><!--entity Bot--><ellipse cx="635" cy="169" fill="#FEFECE" filter="url(#f14ib1lcd9t0b5)" rx="8" ry="8" style="stroke: #A80036; stroke-width: 2.0;"/><path d="M635,177 L635,204 M622,185 L648,185 M635,204 L622,219 M635,204 L648,219 " fill="none" filter="url(#f14ib1lcd9t0b5)" style="stroke: #A80036; stroke-width: 2.0;"/><text fill="#000000" font-family="sans-serif" font-size="14" lengthAdjust="spacingAndGlyphs" textLength="24" x="623" y="238.9951">Bot</text><!--entity User--><ellipse cx="529" cy="26" fill="#FEFECE" filter="url(#f14ib1lcd9t0b5)" rx="8" ry="8" style="stroke: #A80036; stroke-width: 2.0;"/><path d="M529,34 L529,61 M516,42 L542,42 M529,61 L516,76 M529,61 L542,76 " fill="none" filter="url(#f14ib1lcd9t0b5)" style="stroke: #A80036; stroke-width: 2.0;"/><text fill="#000000" font-family="sans-serif" font-size="14" lengthAdjust="spacingAndGlyphs" textLength="32" x="513" y="95.9951">User</text><!--entity Facebook--><ellipse cx="635" cy="419" fill="#FEFECE" filter="url(#f14ib1lcd9t0b5)" rx="8" ry="8" style="stroke: #A80036; stroke-width: 2.0;"/><path d="M635,427 L635,454 M622,435 L648,435 M635,454 L622,469 M635,454 L648,469 " fill="none" filter="url(#f14ib1lcd9t0b5)" style="stroke: #A80036; stroke-width: 2.0;"/><text fill="#000000" font-family="sans-serif" font-size="14" lengthAdjust="spacingAndGlyphs" textLength="68" x="601" y="488.9951">Facebook</text><!--link Bot to APM--><path d="M650.0977,219.7573 C667.2528,241.6388 695.2823,277.3906 713.9327,301.1795 " fill="none" id="Bot-APM" style="stroke: #A80036; stroke-width: 1.0;"/><polygon fill="#A80036" points="717.0715,305.183,714.6664,295.6323,713.9865,301.2482,708.3707,300.5683,717.0715,305.183" style="stroke: #A80036; stroke-width: 1.0;"/><!--link Bot to APOST--><path d="M619.9023,219.7573 C601.7321,242.9336 571.3626,281.6702 552.8592,305.2714 " fill="none" id="Bot-APOST" style="stroke: #A80036; stroke-width: 1.0;"/><polygon fill="#A80036" points="549.7717,309.2095,558.4725,304.5948,552.8567,305.2747,552.1768,299.6588,549.7717,309.2095" style="stroke: #A80036; stroke-width: 1.0;"/><!--link Bot to AFR--><path d="M619.9131,206.3432 C588.0479,218.7214 511.5891,248.6161 448,275 C426.0574,284.1042 401.9378,294.4558 381.3279,303.4065 " fill="none" id="Bot-AFR" style="stroke: #A80036; stroke-width: 1.0;"/><polygon fill="#A80036" points="376.7144,305.4122,386.5629,305.4925,381.2999,303.4188,383.3735,298.1557,376.7144,305.4122" style="stroke: #A80036; stroke-width: 1.0;"/><!--link Bot to AC--><path d="M619.7245,201.6886 C564.1113,206.3305 367.661,225.4866 214,275 C190.7489,282.4921 166.0681,294.1538 146.4809,304.3838 " fill="none" id="Bot-AC" style="stroke: #A80036; stroke-width: 1.0;"/><polygon fill="#A80036" points="141.6148,306.9504,151.4415,306.2896,146.0373,304.6177,147.7092,299.2136,141.6148,306.9504" style="stroke: #A80036; stroke-width: 1.0;"/><!--link Bot to PFR--><path d="M650.2214,201.9147 C706.5431,207.401 908.1238,229.2748 1068,275 C1092.8287,282.1011 1119.4608,292.5497 1141.6549,302.1029 " fill="none" id="Bot-PFR" style="stroke: #A80036; stroke-width: 1.0;"/><polygon fill="#A80036" points="1146.3213,304.1264,1139.6555,296.8761,1141.734,302.1373,1136.4728,304.2158,1146.3213,304.1264" style="stroke: #A80036; stroke-width: 1.0;"/><!--link Bot to PPM--><path d="M650.2245,205.6877 C684.3,217.3798 769.2003,246.9621 839,275 C861.5736,284.0676 886.3126,294.8227 907.0425,304.0724 " fill="none" id="Bot-PPM" style="stroke: #A80036; stroke-width: 1.0;"/><polygon fill="#A80036" points="911.6745,306.1439,905.0918,298.8181,907.1102,304.1026,901.8257,306.121,911.6745,306.1439" style="stroke: #A80036; stroke-width: 1.0;"/><!--link User to PSUPB--><path d="M545.1484,57.5 C555.1112,57.5 565.074,57.5 575.0368,57.5 " fill="none" id="User-PSUPB" style="stroke: #A80036; stroke-width: 1.0;"/><polygon fill="#A80036" points="580.2467,57.5,571.2467,53.5,575.2467,57.5,571.2467,61.5,580.2467,57.5" style="stroke: #A80036; stroke-width: 1.0;"/><!--link APM to Facebook--><path d="M713.8016,349.9877 C700.671,366.736 682.9365,389.3565 667.6166,408.8972 " fill="none" id="APM-Facebook" style="stroke: #A80036; stroke-width: 1.0;"/><polygon fill="#A80036" points="717.0365,345.8616,708.3358,350.4765,713.9516,349.7965,714.6316,355.4123,717.0365,345.8616" style="stroke: #A80036; stroke-width: 1.0;"/><!--link APOST to Facebook--><path d="M553.0661,345.9925 C566.4012,363.0016 585.7953,387.7389 602.3674,408.8768 " fill="none" id="APOST-Facebook" style="stroke: #A80036; stroke-width: 1.0;"/><polygon fill="#A80036" points="549.8118,341.8416,552.2167,351.3923,552.8967,345.7765,558.5125,346.4565,549.8118,341.8416" style="stroke: #A80036; stroke-width: 1.0;"/><!--link AFR to Facebook--><path d="M383.9587,347.2758 C446.2782,372.9006 547.9359,414.7006 600.7355,436.411 " fill="none" id="AFR-Facebook" style="stroke: #A80036; stroke-width: 1.0;"/><polygon fill="#A80036" points="379.1697,345.3066,385.9722,352.4288,383.794,347.2081,389.0147,345.0299,379.1697,345.3066" style="stroke: #A80036; stroke-width: 1.0;"/><!--link AC to Facebook--><path d="M165.1612,343.1722 C180.8985,347.8993 198.0612,352.8452 214,357 C356.7266,394.2052 529.0951,429.518 600.9652,443.8187 " fill="none" id="AC-Facebook" style="stroke: #A80036; stroke-width: 1.0;"/><polygon fill="#A80036" points="160.3259,341.7134,167.7866,348.1428,165.1127,343.1578,170.0977,340.4839,160.3259,341.7134" style="stroke: #A80036; stroke-width: 1.0;"/><!--link PFR to Facebook--><path d="M1117.8594,344.7991 C1101.4667,348.9362 1084.1666,353.2024 1068,357 C919.9478,391.7779 742.2553,428.6177 669.0567,443.5821 " fill="none" id="PFR-Facebook" style="stroke: #A80036; stroke-width: 1.0;"/><polygon fill="#A80036" points="1122.9154,343.5199,1113.2092,341.8497,1118.0681,344.7463,1115.1715,349.6053,1122.9154,343.5199" style="stroke: #A80036; stroke-width: 1.0;"/><!--link PPM to Facebook--><path d="M901.1965,346.191 C835.4469,371.955 725.0192,415.226 669.3255,437.0496 " fill="none" id="PPM-Facebook" style="stroke: #A80036; stroke-width: 1.0;"/><polygon fill="#A80036" points="906.2425,344.2138,896.4035,343.7732,901.5872,346.038,899.3223,351.2217,906.2425,344.2138" style="stroke: #A80036; stroke-width: 1.0;"/><!--link PSUPB to Bot--><path d="M635,77.3136 C635,98.3002 635,132.0467 635,158.9164 " fill="none" id="PSUPB-Bot" style="stroke: #A80036; stroke-width: 1.0;"/><polygon fill="#A80036" points="635,72.2649,631,81.2649,635,77.2649,639,81.2649,635,72.2649" style="stroke: #A80036; stroke-width: 1.0;"/><!--
@startuml

rectangle active {
  usecase APM as "Send Private Message"
  usecase APOST as "Post Something"
  usecase AFR as "Send Friendship Request"
  usecase AC as "Comment Something"
}

rectangle passive {
  usecase PFR as "Answer Friendship Request"
  usecase PPM as "Answer Private Message"
}

rectangle parametrize {
  usecase PSUPB as "Set up Bot"
}

:Bot: - -> APM
:Bot: - -> APOST
:Bot: - -> AFR
:Bot: - -> AC
:Bot: - -> PFR
:Bot: - -> PPM

:User: -> PSUPB

APM   <- - :Facebook:
APOST <- - :Facebook:
AFR   <- - :Facebook:
AC    <- - :Facebook:
PFR   <- - :Facebook:
PPM   <- - :Facebook:

PSUPB <- - :Bot:



@enduml

PlantUML version 1.2018.03(Thu Apr 05 18:59:15 CEST 2018)
(GPL source distribution)
Java Runtime: OpenJDK Runtime Environment
JVM: OpenJDK 64-Bit Server VM
Java Version: 1.8.0_162-b12
Operating System: Linux
OS Version: 4.15.15-1-ARCH
Default Encoding: UTF-8
Language: en
Country: US
--></g></svg>